  0
SECTION
  2
HEADER
  9
$ACADVER
  1
AC1024
  9
$ACADMAINTVER
 70
6
  9
$DWGCODEPAGE
  3
ANSI_1252
  9
$LASTSAVEDBY
  1
ezdxf
  9
$INSBASE
 10
0.0
 20
0.0
 30
0.0
  9
$EXTMIN
 10
1e+20
 20
1e+20
 30
1e+20
  9
$EXTMAX
 10
-1e+20
 20
-1e+20
 30
-1e+20
  9
$LIMMIN
 10
0.0
 20
0.0
  9
$LIMMAX
 10
420.0
 20
297.0
  9
$ORTHOMODE
 70
0
  9
$REGENMODE
 70
1
  9
$FILLMODE
 70
1
  9
$QTEXTMODE
 70
0
  9
$MIRRTEXT
 70
1
  9
$LTSCALE
 40
1.0
  9
$ATTMODE
 70
1
  9
$TEXTSIZE
 40
2.5
  9
$TRACEWID
 40
1.0
  9
$TEXTSTYLE
  7
OpenSans
  9
$CLAYER
  8
0
  9
$CELTYPE
  6
ByLayer
  9
$CECOLOR
 62
256
  9
$CELTSCALE
 40
1.0
  9
$DISPSILH
 70
0
  9
$DIMSCALE
 40
1.0
  9
$DIMASZ
 40
0.175
  9
$DIMEXO
 40
0.125
  9
$DIMDLI
 40
3.75
  9
$DIMRND
 40
0.0
  9
$DIMDLE
 40
0.0
  9
$DIMEXE
 40
0.375
  9
$DIMTP
 40
0.0
  9
$DIMTM
 40
0.0
  9
$DIMTXT
 40
0.25
  9
$DIMCEN
 40
2.5
  9
$DIMTSZ
 40
0.0
  9
$DIMTOL
 70
0
  9
$DIMLIM
 70
0
  9
$DIMTIH
 70
0
  9
$DIMTOH
 70
0
  9
$DIMSE1
 70
0
  9
$DIMSE2
 70
0
  9
$DIMTAD
 70
1
  9
$DIMZIN
 70
12
  9
$DIMBLK
  1
ARCHTICK
  9
$DIMASO
 70
1
  9
$DIMSHO
 70
1
  9
$DIMPOST
  1

  9
$DIMAPOST
  1

  9
$DIMALT
 70
0
  9
$DIMALTD
 70
3
  9
$DIMALTF
 40
0.03937007874
  9
$DIMLFAC
 40
100.0
  9
$DIMTOFL
 70
1
  9
$DIMTVP
 40
0.0
  9
$DIMTIX
 70
0
  9
$DIMSOXD
 70
0
  9
$DIMSAH
 70
0
  9
$DIMBLK1
  1

  9
$DIMBLK2
  1

  9
$DIMSTYLE
  2
EZDXF
  9
$DIMCLRD
 70
0
  9
$DIMCLRE
 70
0
  9
$DIMCLRT
 70
0
  9
$DIMTFAC
 40
0.5
  9
$DIMGAP
 40
0.1
  9
$DIMJUST
 70
0
  9
$DIMSD1
 70
0
  9
$DIMSD2
 70
0
  9
$DIMTOLJ
 70
0
  9
$DIMTZIN
 70
8
  9
$DIMALTZ
 70
0
  9
$DIMALTTZ
 70
0
  9
$DIMUPT
 70
1
  9
$DIMDEC
 70
2
  9
$DIMTDEC
 70
2
  9
$DIMALTU
 70
2
  9
$DIMALTTD
 70
3
  9
$DIMTXSTY
  7
OpenSansCondensed-Light
  9
$DIMAUNIT
 70
0
  9
$DIMADEC
 70
2
  9
$DIMALTRND
 40
0.0
  9
$DIMAZIN
 70
3
  9
$DIMDSEP
 70
46
  9
$DIMATFIT
 70
3
  9
$DIMFRAC
 70
0
  9
$DIMLDRBLK
  1

  9
$DIMLUNIT
 70
2
  9
$DIMLWD
 70
-2
  9
$DIMLWE
 70
-2
  9
$DIMTMOVE
 70
2
  9
$DIMFXL
 40
1.0
  9
$DIMFXLON
 70
0
  9
$DIMJOGANG
 40
0.785398163397
  9
$DIMTFILL
 70
0
  9
$DIMTFILLCLR
 70
0
  9
$DIMARCSYM
 70
0
  9
$DIMLTYPE
  6

  9
$DIMLTEX1
  6

  9
$DIMLTEX2
  6

  9
$DIMTXTDIRECTION
 70
0
  9
$LUNITS
 70
2
  9
$LUPREC
 70
4
  9
$SKETCHINC
 40
1.0
  9
$FILLETRAD
 40
10.0
  9
$AUNITS
 70
0
  9
$AUPREC
 70
2
  9
$MENU
  1
.
  9
$ELEVATION
 40
0.0
  9
$PELEVATION
 40
0.0
  9
$THICKNESS
 40
0.0
  9
$LIMCHECK
 70
0
  9
$CHAMFERA
 40
0.0
  9
$CHAMFERB
 40
0.0
  9
$CHAMFERC
 40
0.0
  9
$CHAMFERD
 40
0.0
  9
$SKPOLY
 70
0
  9
$TDCREATE
 40
2461217.0294675925
  9
$TDUCREATE
 40
2458532.153996898
  9
$TDUPDATE
 40
2461217.0294675925
  9
$TDUUPDATE
 40
2458532.1544311
  9
$TDINDWG
 40
0.0
  9
$TDUSRTIMER
 40
0.0
  9
$USRTIMER
 70
1
  9
$ANGBASE
 50
0.0
  9
$ANGDIR
 70
0
  9
$PDMODE
 70
0
  9
$PDSIZE
 40
0.0
  9
$PLINEWID
 40
0.0
  9
$SPLFRAME
 70
0
  9
$SPLINETYPE
 70
6
  9
$SPLINESEGS
 70
8
  9
$HANDSEED
  5
17F
  9
$SURFTAB1
 70
6
  9
$SURFTAB2
 70
6
  9
$SURFTYPE
 70
6
  9
$SURFU
 70
6
  9
$SURFV
 70
6
  9
$UCSBASE
  2

  9
$UCSNAME
  2

  9
$UCSORG
 10
0.0
 20
0.0
 30
0.0
  9
$UCSXDIR
 10
1.0
 20
0.0
 30
0.0
  9
$UCSYDIR
 10
0.0
 20
1.0
 30
0.0
  9
$UCSORTHOREF
  2

  9
$UCSORTHOVIEW
 70
0
  9
$UCSORGTOP
 10
0.0
 20
0.0
 30
0.0
  9
$UCSORGBOTTOM
 10
0.0
 20
0.0
 30
0.0
  9
$UCSORGLEFT
 10
0.0
 20
0.0
 30
0.0
  9
$UCSORGRIGHT
 10
0.0
 20
0.0
 30
0.0
  9
$UCSORGFRONT
 10
0.0
 20
0.0
 30
0.0
  9
$UCSORGBACK
 10
0.0
 20
0.0
 30
0.0
  9
$PUCSBASE
  2

  9
$PUCSNAME
  2

  9
$PUCSORG
 10
0.0
 20
0.0
 30
0.0
  9
$PUCSXDIR
 10
1.0
 20
0.0
 30
0.0
  9
$PUCSYDIR
 10
0.0
 20
1.0
 30
0.0
  9
$PUCSORTHOREF
  2

  9
$PUCSORTHOVIEW
 70
0
  9
$PUCSORGTOP
 10
0.0
 20
0.0
 30
0.0
  9
$PUCSORGBOTTOM
 10
0.0
 20
0.0
 30
0.0
  9
$PUCSORGLEFT
 10
0.0
 20
0.0
 30
0.0
  9
$PUCSORGRIGHT
 10
0.0
 20
0.0
 30
0.0
  9
$PUCSORGFRONT
 10
0.0
 20
0.0
 30
0.0
  9
$PUCSORGBACK
 10
0.0
 20
0.0
 30
0.0
  9
$USERI1
 70
0
  9
$USERI2
 70
0
  9
$USERI3
 70
0
  9
$USERI4
 70
0
  9
$USERI5
 70
0
  9
$USERR1
 40
0.0
  9
$USERR2
 40
0.0
  9
$USERR3
 40
0.0
  9
$USERR4
 40
0.0
  9
$USERR5
 40
0.0
  9
$WORLDVIEW
 70
1
  9
$SHADEDGE
 70
3
  9
$SHADEDIF
 70
70
  9
$TILEMODE
 70
1
  9
$MAXACTVP
 70
64
  9
$PINSBASE
 10
0.0
 20
0.0
 30
0.0
  9
$PLIMCHECK
 70
0
  9
$PEXTMIN
 10
1e+20
 20
1e+20
 30
1e+20
  9
$PEXTMAX
 10
-1e+20
 20
-1e+20
 30
-1e+20
  9
$PLIMMIN
 10
0.0
 20
0.0
  9
$PLIMMAX
 10
420.0
 20
297.0
  9
$UNITMODE
 70
0
  9
$VISRETAIN
 70
1
  9
$PLINEGEN
 70
0
  9
$PSLTSCALE
 70
1
  9
$TREEDEPTH
 70
3020
  9
$CMLSTYLE
  2
Standard
  9
$CMLJUST
 70
0
  9
$CMLSCALE
 40
20.0
  9
$PROXYGRAPHICS
 70
1
  9
$MEASUREMENT
 70
1
  9
$CELWEIGHT
370
-1
  9
$ENDCAPS
280
0
  9
$JOINSTYLE
280
0
  9
$LWDISPLAY
290
0
  9
$INSUNITS
 70
4
  9
$HYPERLINKBASE
  1

  9
$STYLESHEET
  1

  9
$XEDIT
290
1
  9
$CEPSNTYPE
380
0
  9
$PSTYLEMODE
290
1
  9
$FINGERPRINTGUID
  2
{A2196B25-0AFA-4094-8E60-8AD53DDF8DC5}
  9
$VERSIONGUID
  2
{4C98B57B-A5EE-4A06-8729-62FA669FDD06}
  9
$EXTNAMES
290
1
  9
$PSVPSCALE
 40
0.0
  9
$OLESTARTUP
290
0
  9
$SORTENTS
280
127
  9
$INDEXCTL
280
0
  9
$HIDETEXT
280
1
  9
$XCLIPFRAME
280
1
  9
$HALOGAP
280
0
  9
$OBSCOLOR
 70
257
  9
$OBSLTYPE
280
0
  9
$INTERSECTIONDISPLAY
280
0
  9
$INTERSECTIONCOLOR
 70
257
  9
$DIMASSOC
280
2
  9
$PROJECTNAME
  1

  9
$CAMERADISPLAY
290
0
  9
$LENSLENGTH
 40
50.0
  9
$CAMERAHEIGHT
 40
0.0
  9
$STEPSPERSEC
 40
24.0
  9
$STEPSIZE
 40
100.0
  9
$3DDWFPREC
 40
2.0
  9
$PSOLWIDTH
 40
0.005
  9
$PSOLHEIGHT
 40
0.08
  9
$LOFTANG1
 40
1.570796326795
  9
$LOFTANG2
 40
1.570796326795
  9
$LOFTMAG1
 40
0.0
  9
$LOFTMAG2
 40
0.0
  9
$LOFTPARAM
 70
7
  9
$LOFTNORMALS
280
1
  9
$LATITUDE
 40
37.795
  9
$LONGITUDE
 40
-122.394
  9
$NORTHDIRECTION
 40
0.0
  9
$TIMEZONE
 70
-8000
  9
$LIGHTGLYPHDISPLAY
280
1
  9
$TILEMODELIGHTSYNCH
280
1
  9
$CMATERIAL
347
20
  9
$SOLIDHIST
280
0
  9
$SHOWHIST
280
1
  9
$DWFFRAME
280
2
  9
$DGNFRAME
280
2
  9
$REALWORLDSCALE
290
1
  9
$INTERFERECOLOR
 62
256
  9
$CSHADOW
280
0
  9
$SHADOWPLANELOCATION
 40
0.0
  0
ENDSEC
  0
SECTION
  2
CLASSES
  0
CLASS
  1
ACDBDICTIONARYWDFLT
  2
AcDbDictionaryWithDefault
  3
ObjectDBX Classes
 90
0
 91
0
280
0
281
0
  0
CLASS
  1
SUN
  2
AcDbSun
  3
SCENEOE
 90
1153
 91
0
280
0
281
0
  0
CLASS
  1
VISUALSTYLE
  2
AcDbVisualStyle
  3
ObjectDBX Classes
 90
4095
 91
0
280
0
281
0
  0
CLASS
  1
MATERIAL
  2
AcDbMaterial
  3
ObjectDBX Classes
 90
1153
 91
0
280
0
281
0
  0
CLASS
  1
SCALE
  2
AcDbScale
  3
ObjectDBX Classes
 90
1153
 91
0
280
0
281
0
  0
CLASS
  1
TABLESTYLE
  2
AcDbTableStyle
  3
ObjectDBX Classes
 90
4095
 91
0
280
0
281
0
  0
CLASS
  1
MLEADERSTYLE
  2
AcDbMLeaderStyle
  3
ACDB_MLEADERSTYLE_CLASS
 90
4095
 91
0
280
0
281
0
  0
CLASS
  1
DICTIONARYVAR
  2
AcDbDictionaryVar
  3
ObjectDBX Classes
 90
0
 91
0
280
0
281
0
  0
CLASS
  1
CELLSTYLEMAP
  2
AcDbCellStyleMap
  3
ObjectDBX Classes
 90
1152
 91
0
280
0
281
0
  0
CLASS
  1
MENTALRAYRENDERSETTINGS
  2
AcDbMentalRayRenderSettings
  3
SCENEOE
 90
1024
 91
0
280
0
281
0
  0
CLASS
  1
ACDBDETAILVIEWSTYLE
  2
AcDbDetailViewStyle
  3
ObjectDBX Classes
 90
1025
 91
0
280
0
281
0
  0
CLASS
  1
ACDBSECTIONVIEWSTYLE
  2
AcDbSectionViewStyle
  3
ObjectDBX Classes
 90
1025
 91
0
280
0
281
0
  0
CLASS
  1
RASTERVARIABLES
  2
AcDbRasterVariables
  3
ISM
 90
0
 91
0
280
0
281
0
  0
CLASS
  1
LAYOUT
  2
AcDbLayout
  3
ObjectDBX Classes
 90
0
 91
0
280
0
281
0
  0
CLASS
  1
ACDBPLACEHOLDER
  2
AcDbPlaceHolder
  3
ObjectDBX Classes
 90
0
 91
0
280
0
281
0
  0
ENDSEC
  0
SECTION
  2
TABLES
  0
TABLE
  2
VPORT
  5
8
330
0
100
AcDbSymbolTable
 70
1
  0
VPORT
  5
23
330
8
100
AcDbSymbolTableRecord
100
AcDbViewportTableRecord
  2
*Active
 70
0
 10
0.0
 20
0.0
 11
1.0
 21
1.0
 12
0.0
 22
0.0
 13
0.0
 23
0.0
 14
0.5
 24
0.5
 15
0.5
 25
0.5
 16
0.0
 26
0.0
 36
1.0
 17
0.0
 27
0.0
 37
0.0
 40
1000.0
 41
1.34
 42
50.0
 43
0.0
 44
0.0
 50
0.0
 51
0.0
 71
0
 72
1000
 73
1
 74
3
 75
0
 76
0
 77
0
 78
0
281
0
 65
0
146
0.0
  0
ENDTAB
  0
TABLE
  2
LTYPE
  5
2
330
0
100
AcDbSymbolTable
 70
21
  0
LTYPE
  5
24
330
2
100
AcDbSymbolTableRecord
100
AcDbLinetypeTableRecord
  2
ByBlock
 70
0
  3

 72
65
 73
0
 40
0.0
  0
LTYPE
  5
25
330
2
100
AcDbSymbolTableRecord
100
AcDbLinetypeTableRecord
  2
ByLayer
 70
0
  3

 72
65
 73
0
 40
0.0
  0
LTYPE
  5
26
330
2
100
AcDbSymbolTableRecord
100
AcDbLinetypeTableRecord
  2
Continuous
 70
0
  3

 72
65
 73
0
 40
0.0
  0
LTYPE
  5
2F
330
2
100
AcDbSymbolTableRecord
100
AcDbLinetypeTableRecord
  2
CENTER
 70
0
  3
Center ____ _ ____ _ ____ _ ____ _ ____ _ ____
 72
65
 73
4
 40
5.08
 49
3.175
 74
0
 49
-0.635
 74
0
 49
0.635
 74
0
 49
-0.635
 74
0
  0
LTYPE
  5
30
330
2
100
AcDbSymbolTableRecord
100
AcDbLinetypeTableRecord
  2
CENTERX2
 70
0
  3
Center (2x) ________  __  ________  __  ________
 72
65
 73
4
 40
8.89
 49
6.35
 74
0
 49
-0.635
 74
0
 49
1.27
 74
0
 49
-0.635
 74
0
  0
LTYPE
  5
31
330
2
100
AcDbSymbolTableRecord
100
AcDbLinetypeTableRecord
  2
CENTER2
 70
0
  3
Center (.5x) ____ _ ____ _ ____ _ ____ _ ____
 72
65
 73
4
 40
2.54
 49
1.587
 74
0
 49
-0.318
 74
0
 49
0.318
 74
0
 49
-0.318
 74
0
  0
LTYPE
  5
32
330
2
100
AcDbSymbolTableRecord
100
AcDbLinetypeTableRecord
  2
DASHED
 70
0
  3
Dashed __ __ __ __ __ __ __ __ __ __ __ __ __ _
 72
65
 73
2
 40
1.524
 49
1.27
 74
0
 49
-0.254
 74
0
  0
LTYPE
  5
33
330
2
100
AcDbSymbolTableRecord
100
AcDbLinetypeTableRecord
  2
DASHEDX2
 70
0
  3
Dashed (2x) ____  ____  ____  ____  ____  ____
 72
65
 73
2
 40
3.048
 49
2.54
 74
0
 49
-0.508
 74
0
  0
LTYPE
  5
34
330
2
100
AcDbSymbolTableRecord
100
AcDbLinetypeTableRecord
  2
DASHED2
 70
0
  3
Dashed (.5x) _ _ _ _ _ _ _ _ _ _ _ _ _ _
 72
65
 73
2
 40
0.762
 49
0.635
 74
0
 49
-0.127
 74
0
  0
LTYPE
  5
35
330
2
100
AcDbSymbolTableRecord
100
AcDbLinetypeTableRecord
  2
PHANTOM
 70
0
  3
Phantom ______  __  __  ______  __  __  ______
 72
65
 73
6
 40
6.35
 49
3.175
 74
0
 49
-0.635
 74
0
 49
0.635
 74
0
 49
-0.635
 74
0
 49
0.635
 74
0
 49
-0.635
 74
0
  0
LTYPE
  5
36
330
2
100
AcDbSymbolTableRecord
100
AcDbLinetypeTableRecord
  2
PHANTOMX2
 70
0
  3
Phantom (2x)____________    ____    ____    ____________
 72
65
 73
6
 40
10.795
 49
6.35
 74
0
 49
-0.635
 74
0
 49
1.27
 74
0
 49
-0.635
 74
0
 49
1.27
 74
0
 49
-0.635
 74
0
  0
LTYPE
  5
37
330
2
100
AcDbSymbolTableRecord
100
AcDbLinetypeTableRecord
  2
PHANTOM2
 70
0
  3
Phantom (.5x) ___ _ _ ___ _ _ ___ _ _ ___ _ _ ___
 72
65
 73
6
 40
3.175
 49
1.587
 74
0
 49
-0.318
 74
0
 49
0.318
 74
0
 49
-0.318
 74
0
 49
0.318
 74
0
 49
-0.318
 74
0
  0
LTYPE
  5
38
330
2
100
AcDbSymbolTableRecord
100
AcDbLinetypeTableRecord
  2
DASHDOT
 70
0
  3
Dash dot __ . __ . __ . __ . __ . __ . __ . __
 72
65
 73
4
 40
3.556
 49
2.54
 74
0
 49
-0.508
 74
0
 49
0.0
 74
0
 49
-0.508
 74
0
  0
LTYPE
  5
39
330
2
100
AcDbSymbolTableRecord
100
AcDbLinetypeTableRecord
  2
DASHDOTX2
 70
0
  3
Dash dot (2x) ____  .  ____  .  ____  .  ____
 72
65
 73
4
 40
6.096
 49
5.08
 74
0
 49
-0.508
 74
0
 49
0.0
 74
0
 49
-0.508
 74
0
  0
LTYPE
  5
3A
330
2
100
AcDbSymbolTableRecord
100
AcDbLinetypeTableRecord
  2
DASHDOT2
 70
0
  3
Dash dot (.5x) _ . _ . _ . _ . _ . _ . _ . _
 72
65
 73
4
 40
1.778
 49
1.27
 74
0
 49
-0.254
 74
0
 49
0.0
 74
0
 49
-0.254
 74
0
  0
LTYPE
  5
3B
330
2
100
AcDbSymbolTableRecord
100
AcDbLinetypeTableRecord
  2
DOT
 70
0
  3
Dot .  .  .  .  .  .  .  .  .  .  .  .  .  .  .  .
 72
65
 73
2
 40
0.508
 49
0.0
 74
0
 49
-0.508
 74
0
  0
LTYPE
  5
3C
330
2
100
AcDbSymbolTableRecord
100
AcDbLinetypeTableRecord
  2
DOTX2
 70
0
  3
Dot (2x) .    .    .    .    .    .    .    . 
 72
65
 73
2
 40
1.016
 49
0.0
 74
0
 49
-1.016
 74
0
  0
LTYPE
  5
3D
330
2
100
AcDbSymbolTableRecord
100
AcDbLinetypeTableRecord
  2
DOT2
 70
0
  3
Dot (.5) . . . . . . . . . . . . . . . . . . . 
 72
65
 73
2
 40
0.254
 49
0.0
 74
0
 49
-0.254
 74
0
  0
LTYPE
  5
3E
330
2
100
AcDbSymbolTableRecord
100
AcDbLinetypeTableRecord
  2
DIVIDE
 70
0
  3
Divide __ . . __ . . __ . . __ . . __ . . __
 72
65
 73
6
 40
4.064
 49
2.54
 74
0
 49
-0.508
 74
0
 49
0.0
 74
0
 49
-0.508
 74
0
 49
0.0
 74
0
 49
-0.508
 74
0
  0
LTYPE
  5
3F
330
2
100
AcDbSymbolTableRecord
100
AcDbLinetypeTableRecord
  2
DIVIDEX2
 70
0
  3
Divide (2x) ____  . .  ____  . .  ____  . .  ____
 72
65
 73
6
 40
6.604
 49
5.08
 74
0
 49
-0.508
 74
0
 49
0.0
 74
0
 49
-0.508
 74
0
 49
0.0
 74
0
 49
-0.508
 74
0
  0
LTYPE
  5
40
330
2
100
AcDbSymbolTableRecord
100
AcDbLinetypeTableRecord
  2
DIVIDE2
 70
0
  3
Divide(.5x) _ . _ . _ . _ . _ . _ . _ . _
 72
65
 73
6
 40
2.032
 49
1.27
 74
0
 49
-0.254
 74
0
 49
0.0
 74
0
 49
-0.254
 74
0
 49
0.0
 74
0
 49
-0.254
 74
0
  0
ENDTAB
  0
TABLE
  2
LAYER
  5
1
330
0
100
AcDbSymbolTable
 70
17
  0
LAYER
  5
27
330
1
100
AcDbSymbolTableRecord
100
AcDbLayerTableRecord
  2
0
 70
0
 62
7
  6
Continuous
370
-3
390
13
347
21
  0
LAYER
  5
28
330
1
100
AcDbSymbolTableRecord
100
AcDbLayerTableRecord
  2
Defpoints
 70
0
 62
7
  6
Continuous
290
0
370
-3
390
13
347
21
  0
LAYER
  5
8A
330
1
100
AcDbSymbolTableRecord
100
AcDbLayerTableRecord
  2
BORDER
 70
0
 62
7
  6
CONTINUOUS
370
-3
390
13
347
21
  0
LAYER
  5
8B
330
1
100
AcDbSymbolTableRecord
100
AcDbLayerTableRecord
  2
TITLE
 70
0
 62
7
  6
CONTINUOUS
370
-3
390
13
347
21
  0
LAYER
  5
8C
330
1
100
AcDbSymbolTableRecord
100
AcDbLayerTableRecord
  2
STRUCT
 70
0
 62
5
  6
CONTINUOUS
370
-3
390
13
347
21
  0
LAYER
  5
8D
330
1
100
AcDbSymbolTableRecord
100
AcDbLayerTableRecord
  2
PURLIN
 70
0
 62
3
  6
CONTINUOUS
370
-3
390
13
347
21
  0
LAYER
  5
8E
330
1
100
AcDbSymbolTableRecord
100
AcDbLayerTableRecord
  2
PANEL
 70
0
 62
4
  6
CONTINUOUS
370
-3
390
13
347
21
  0
LAYER
  5
8F
330
1
100
AcDbSymbolTableRecord
100
AcDbLayerTableRecord
  2
ROOF
 70
0
 62
6
  6
CONTINUOUS
370
-3
390
13
347
21
  0
LAYER
  5
90
330
1
100
AcDbSymbolTableRecord
100
AcDbLayerTableRecord
  2
ANCHOR
 70
0
 62
1
  6
CONTINUOUS
370
-3
390
13
347
21
  0
LAYER
  5
91
330
1
100
AcDbSymbolTableRecord
100
AcDbLayerTableRecord
  2
CTRLBOX
 70
0
 62
30
  6
CONTINUOUS
370
-3
390
13
347
21
  0
LAYER
  5
92
330
1
100
AcDbSymbolTableRecord
100
AcDbLayerTableRecord
  2
DIM
 70
0
 62
8
  6
CONTINUOUS
370
-3
390
13
347
21
  0
LAYER
  5
93
330
1
100
AcDbSymbolTableRecord
100
AcDbLayerTableRecord
  2
TEXT
 70
0
 62
7
  6
CONTINUOUS
370
-3
390
13
347
21
  0
LAYER
  5
94
330
1
100
AcDbSymbolTableRecord
100
AcDbLayerTableRecord
  2
HIDDEN
 70
0
 62
252
  6
DASHED
370
-3
390
13
347
21
  0
LAYER
  5
95
330
1
100
AcDbSymbolTableRecord
100
AcDbLayerTableRecord
  2
CENTER
 70
0
 62
251
  6
CENTER
370
-3
390
13
347
21
  0
LAYER
  5
96
330
1
100
AcDbSymbolTableRecord
100
AcDbLayerTableRecord
  2
HATCH
 70
0
 62
9
  6
CONTINUOUS
370
-3
390
13
347
21
  0
LAYER
  5
97
330
1
100
AcDbSymbolTableRecord
100
AcDbLayerTableRecord
  2
GROUND
 70
0
 62
8
  6
CONTINUOUS
370
-3
390
13
347
21
  0
LAYER
  5
98
330
1
100
AcDbSymbolTableRecord
100
AcDbLayerTableRecord
  2
LEADER
 70
0
 62
7
  6
CONTINUOUS
370
-3
390
13
347
21
  0
ENDTAB
  0
TABLE
  2
STYLE
  5
5
330
0
100
AcDbSymbolTable
 70
27
  0
STYLE
  5
29
330
5
100
AcDbSymbolTableRecord
100
AcDbTextStyleTableRecord
  2
Standard
 70
0
 40
0.0
 41
1.0
 50
0.0
 71
0
 42
2.5
  3
txt
  4

  0
STYLE
  5
41
330
5
100
AcDbSymbolTableRecord
100
AcDbTextStyleTableRecord
  2
OpenSans-Light
 70
0
 40
0.0
 41
1.0
 50
0.0
 71
0
 42
2.5
  3
OpenSans-Light.ttf
  4

  0
STYLE
  5
42
330
5
100
AcDbSymbolTableRecord
100
AcDbTextStyleTableRecord
  2
OpenSans-Light-Italic
 70
0
 40
0.0
 41
1.0
 50
0.0
 71
0
 42
2.5
  3
OpenSans-LightItalic.ttf
  4

  0
STYLE
  5
43
330
5
100
AcDbSymbolTableRecord
100
AcDbTextStyleTableRecord
  2
OpenSans
 70
0
 40
0.0
 41
1.0
 50
0.0
 71
0
 42
2.5
  3
OpenSans-Regular.ttf
  4

  0
STYLE
  5
44
330
5
100
AcDbSymbolTableRecord
100
AcDbTextStyleTableRecord
  2
OpenSans-Italic
 70
0
 40
0.0
 41
1.0
 50
0.0
 71
0
 42
2.5
  3
OpenSans-Italic.ttf
  4

  0
STYLE
  5
45
330
5
100
AcDbSymbolTableRecord
100
AcDbTextStyleTableRecord
  2
OpenSans-SemiBold
 70
0
 40
0.0
 41
1.0
 50
0.0
 71
0
 42
2.5
  3
OpenSans-SemiBold.ttf
  4

  0
STYLE
  5
46
330
5
100
AcDbSymbolTableRecord
100
AcDbTextStyleTableRecord
  2
OpenSans-SemiBoldItalic
 70
0
 40
0.0
 41
1.0
 50
0.0
 71
0
 42
2.5
  3
OpenSans-SemiBoldItalic.ttf
  4

  0
STYLE
  5
47
330
5
100
AcDbSymbolTableRecord
100
AcDbTextStyleTableRecord
  2
OpenSans-Bold
 70
0
 40
0.0
 41
1.0
 50
0.0
 71
0
 42
2.5
  3
OpenSans-Bold.ttf
  4

  0
STYLE
  5
48
330
5
100
AcDbSymbolTableRecord
100
AcDbTextStyleTableRecord
  2
OpenSans-BoldItalic
 70
0
 40
0.0
 41
1.0
 50
0.0
 71
0
 42
2.5
  3
OpenSans-BoldItalic.ttf
  4

  0
STYLE
  5
49
330
5
100
AcDbSymbolTableRecord
100
AcDbTextStyleTableRecord
  2
OpenSans-ExtraBold
 70
0
 40
0.0
 41
1.0
 50
0.0
 71
0
 42
2.5
  3
OpenSans-ExtraBold.ttf
  4

  0
STYLE
  5
4A
330
5
100
AcDbSymbolTableRecord
100
AcDbTextStyleTableRecord
  2
OpenSans-ExtraBoldItalic
 70
0
 40
0.0
 41
1.0
 50
0.0
 71
0
 42
2.5
  3
OpenSans-ExtraBoldItalic.ttf
  4

  0
STYLE
  5
4B
330
5
100
AcDbSymbolTableRecord
100
AcDbTextStyleTableRecord
  2
OpenSansCondensed-Bold
 70
0
 40
0.0
 41
1.0
 50
0.0
 71
0
 42
2.5
  3
OpenSansCondensed-Bold.ttf
  4

  0
STYLE
  5
4C
330
5
100
AcDbSymbolTableRecord
100
AcDbTextStyleTableRecord
  2
OpenSansCondensed-Light
 70
0
 40
0.0
 41
1.0
 50
0.0
 71
0
 42
2.5
  3
OpenSansCondensed-Light.ttf
  4

  0
STYLE
  5
4D
330
5
100
AcDbSymbolTableRecord
100
AcDbTextStyleTableRecord
  2
OpenSansCondensed-Italic
 70
0
 40
0.0
 41
1.0
 50
0.0
 71
0
 42
2.5
  3
OpenSansCondensed-LightItalic.ttf
  4

  0
STYLE
  5
4E
330
5
100
AcDbSymbolTableRecord
100
AcDbTextStyleTableRecord
  2
LiberationSans
 70
0
 40
0.0
 41
1.0
 50
0.0
 71
0
 42
2.5
  3
LiberationSans-Regular.ttf
  4

  0
STYLE
  5
4F
330
5
100
AcDbSymbolTableRecord
100
AcDbTextStyleTableRecord
  2
LiberationSans-Bold
 70
0
 40
0.0
 41
1.0
 50
0.0
 71
0
 42
2.5
  3
LiberationSans-Bold.ttf
  4

  0
STYLE
  5
50
330
5
100
AcDbSymbolTableRecord
100
AcDbTextStyleTableRecord
  2
LiberationSans-BoldItalic
 70
0
 40
0.0
 41
1.0
 50
0.0
 71
0
 42
2.5
  3
LiberationSans-BoldItalic.ttf
  4

  0
STYLE
  5
51
330
5
100
AcDbSymbolTableRecord
100
AcDbTextStyleTableRecord
  2
LiberationSans-Italic
 70
0
 40
0.0
 41
1.0
 50
0.0
 71
0
 42
2.5
  3
LiberationSans-Italic.ttf
  4

  0
STYLE
  5
52
330
5
100
AcDbSymbolTableRecord
100
AcDbTextStyleTableRecord
  2
LiberationSerif
 70
0
 40
0.0
 41
1.0
 50
0.0
 71
0
 42
2.5
  3
LiberationSerif-Regular.ttf
  4

  0
STYLE
  5
53
330
5
100
AcDbSymbolTableRecord
100
AcDbTextStyleTableRecord
  2
LiberationSerif-Bold
 70
0
 40
0.0
 41
1.0
 50
0.0
 71
0
 42
2.5
  3
LiberationSerif-Bold.ttf
  4

  0
STYLE
  5
54
330
5
100
AcDbSymbolTableRecord
100
AcDbTextStyleTableRecord
  2
LiberationSerif-BoldItalic
 70
0
 40
0.0
 41
1.0
 50
0.0
 71
0
 42
2.5
  3
LiberationSerif-BoldItalic.ttf
  4

  0
STYLE
  5
55
330
5
100
AcDbSymbolTableRecord
100
AcDbTextStyleTableRecord
  2
LiberationSerif-Italic
 70
0
 40
0.0
 41
1.0
 50
0.0
 71
0
 42
2.5
  3
LiberationSerif-Italic.ttf
  4

  0
STYLE
  5
56
330
5
100
AcDbSymbolTableRecord
100
AcDbTextStyleTableRecord
  2
LiberationMono
 70
0
 40
0.0
 41
1.0
 50
0.0
 71
0
 42
2.5
  3
LiberationMono-Regular.ttf
  4

  0
STYLE
  5
57
330
5
100
AcDbSymbolTableRecord
100
AcDbTextStyleTableRecord
  2
LiberationMono-Bold
 70
0
 40
0.0
 41
1.0
 50
0.0
 71
0
 42
2.5
  3
LiberationMono-Bold.ttf
  4

  0
STYLE
  5
58
330
5
100
AcDbSymbolTableRecord
100
AcDbTextStyleTableRecord
  2
LiberationMono-BoldItalic
 70
0
 40
0.0
 41
1.0
 50
0.0
 71
0
 42
2.5
  3
LiberationMono-BoldItalic.ttf
  4

  0
STYLE
  5
59
330
5
100
AcDbSymbolTableRecord
100
AcDbTextStyleTableRecord
  2
LiberationMono-Italic
 70
0
 40
0.0
 41
1.0
 50
0.0
 71
0
 42
2.5
  3
LiberationMono-Italic.ttf
  4

  0
STYLE
  5
99
330
5
100
AcDbSymbolTableRecord
100
AcDbTextStyleTableRecord
  2
ARIAL
 70
0
 40
0.0
 41
1.0
 50
0.0
 71
0
 42
2.5
  3
arial.ttf
  4

  0
ENDTAB
  0
TABLE
  2
VIEW
  5
7
330
0
100
AcDbSymbolTable
 70
0
  0
ENDTAB
  0
TABLE
  2
UCS
  5
6
330
0
100
AcDbSymbolTable
 70
0
  0
ENDTAB
  0
TABLE
  2
APPID
  5
3
330
0
100
AcDbSymbolTable
 70
3
  0
APPID
  5
2A
330
3
100
AcDbSymbolTableRecord
100
AcDbRegAppTableRecord
  2
ACAD
 70
0
  0
APPID
  5
17C
330
3
100
AcDbSymbolTableRecord
100
AcDbRegAppTableRecord
  2
HATCHBACKGROUNDCOLOR
 70
0
  0
APPID
  5
17D
330
3
100
AcDbSymbolTableRecord
100
AcDbRegAppTableRecord
  2
EZDXF
 70
0
  0
ENDTAB
  0
TABLE
  2
DIMSTYLE
  5
4
330
0
100
AcDbSymbolTable
 70
12
100
AcDbDimStyleTable
  0
DIMSTYLE
105
2B
330
4
100
AcDbSymbolTableRecord
100
AcDbDimStyleTableRecord
  2
Standard
 70
0
 40
1.0
 41
2.5
 42
0.625
 43
3.75
 44
1.25
 45
0.0
 46
0.0
 47
0.0
 48
0.0
 49
2.5
140
2.5
141
2.5
142
0.0
143
0.03937007874
144
1.0
145
0.0
146
1.0
147
0.625
148
0.0
 69
0
 70
0
 71
0
 72
0
 73
0
 74
0
 75
0
 76
0
 77
1
 78
8
 79
3
170
0
171
3
172
1
173
0
174
0
175
0
176
0
177
0
178
0
179
2
271
2
272
2
273
2
274
3
275
0
276
0
277
2
278
44
279
0
280
0
281
0
282
0
283
0
284
8
285
0
286
0
288
0
289
3
290
0
371
-2
372
-2
  0
DIMSTYLE
105
73
330
4
100
AcDbSymbolTableRecord
100
AcDbDimStyleTableRecord
  2
EZDXF
 70
0
 40
1.0
 41
0.175
 42
0.125
 43
3.75
 44
0.375
 45
0.0
 46
0.0
 47
0.0
 48
0.0
 49
2.5
140
0.25
141
2.5
142
0.0
143
0.03937007874
144
100.0
145
0.0
146
0.5
147
0.1
148
0.0
 69
0
 70
0
 71
0
 72
0
 73
0
 74
0
 75
0
 76
0
 77
1
 78
12
 79
3
170
0
171
3
172
1
173
0
174
0
175
0
176
0
177
0
178
0
179
2
271
2
272
2
273
2
274
3
275
0
276
0
277
2
278
46
279
2
280
0
281
0
282
0
283
0
284
8
285
0
286
0
288
1
289
3
290
0
340
4C
342
74
371
-2
372
-2
  0
DIMSTYLE
105
7C
330
4
100
AcDbSymbolTableRecord
100
AcDbDimStyleTableRecord
  2
EZ_M_100_H25_CM
 70
0
 40
1.0
 41
0.25
 42
0.125
 43
3.75
 44
0.375
 45
0.0
 46
0.0
 47
0.0
 48
0.0
 49
2.5
140
0.25
141
2.5
142
0.125
143
0.03937007874
144
100.0
145
0.0
146
0.5
147
0.1
148
0.0
 69
0
 70
0
 71
0
 72
0
 73
0
 74
0
 75
0
 76
0
 77
1
 78
12
 79
3
170
0
171
3
172
1
173
0
174
0
175
0
176
0
177
0
178
0
179
2
271
2
272
2
273
2
274
3
275
0
276
0
277
2
278
46
279
2
280
0
281
0
282
0
283
0
284
8
285
0
286
0
288
1
289
3
290
0
340
4C
371
-2
372
-2
  0
DIMSTYLE
105
7D
330
4
100
AcDbSymbolTableRecord
100
AcDbDimStyleTableRecord
  2
EZ_M_50_H25_CM
 70
0
 40
1.0
 41
0.125
 42
0.0625
 43
3.75
 44
0.1875
 45
0.0
 46
0.0
 47
0.0
 48
0.0
 49
2.5
140
0.125
141
2.5
142
0.0625
143
0.03937007874
144
100.0
145
0.0
146
0.5
147
0.05
148
0.0
 69
0
 70
0
 71
0
 72
0
 73
0
 74
0
 75
0
 76
0
 77
1
 78
12
 79
3
170
0
171
3
172
1
173
0
174
0
175
0
176
0
177
0
178
0
179
2
271
2
272
2
273
2
274
3
275
0
276
0
277
2
278
46
279
2
280
0
281
0
282
0
283
0
284
8
285
0
286
0
288
1
289
3
290
0
340
4C
371
-2
372
-2
  0
DIMSTYLE
105
7E
330
4
100
AcDbSymbolTableRecord
100
AcDbDimStyleTableRecord
  2
EZ_M_25_H25_CM
 70
0
 40
1.0
 41
0.0625
 42
0.03125
 43
3.75
 44
0.09375
 45
0.0
 46
0.0
 47
0.0
 48
0.0
 49
2.5
140
0.0625
141
2.5
142
0.03125
143
0.03937007874
144
100.0
145
0.0
146
0.5
147
0.025
148
0.0
 69
0
 70
0
 71
0
 72
0
 73
0
 74
0
 75
0
 76
0
 77
1
 78
12
 79
3
170
0
171
3
172
1
173
0
174
0
175
0
176
0
177
0
178
0
179
2
271
2
272
2
273
2
274
3
275
0
276
0
277
2
278
46
279
2
280
0
281
0
282
0
283
0
284
8
285
0
286
0
288
1
289
3
290
0
340
4C
371
-2
372
-2
  0
DIMSTYLE
105
7F
330
4
100
AcDbSymbolTableRecord
100
AcDbDimStyleTableRecord
  2
EZ_M_20_H25_CM
 70
0
 40
1.0
 41
0.05
 42
0.025
 43
3.75
 44
0.07500000000000001
 45
0.0
 46
0.0
 47
0.0
 48
0.0
 49
2.5
140
0.05
141
2.5
142
0.025
143
0.03937007874
144
100.0
145
0.0
146
0.5
147
0.020000000000000004
148
0.0
 69
0
 70
0
 71
0
 72
0
 73
0
 74
0
 75
0
 76
0
 77
1
 78
12
 79
3
170
0
171
3
172
1
173
0
174
0
175
0
176
0
177
0
178
0
179
2
271
2
272
2
273
2
274
3
275
0
276
0
277
2
278
46
279
2
280
0
281
0
282
0
283
0
284
8
285
0
286
0
288
1
289
3
290
0
340
4C
371
-2
372
-2
  0
DIMSTYLE
105
80
330
4
100
AcDbSymbolTableRecord
100
AcDbDimStyleTableRecord
  2
EZ_M_10_H25_CM
 70
0
 40
1.0
 41
0.025
 42
0.0125
 43
3.75
 44
0.037500000000000006
 45
0.0
 46
0.0
 47
0.0
 48
0.0
 49
2.5
140
0.025
141
2.5
142
0.0125
143
0.03937007874
144
100.0
145
0.0
146
0.5
147
0.010000000000000002
148
0.0
 69
0
 70
0
 71
0
 72
0
 73
0
 74
0
 75
0
 76
0
 77
1
 78
12
 79
3
170
0
171
3
172
1
173
0
174
0
175
0
176
0
177
0
178
0
179
2
271
2
272
2
273
2
274
3
275
0
276
0
277
2
278
46
279
2
280
0
281
0
282
0
283
0
284
8
285
0
286
0
288
1
289
3
290
0
340
4C
371
-2
372
-2
  0
DIMSTYLE
105
81
330
4
100
AcDbSymbolTableRecord
100
AcDbDimStyleTableRecord
  2
EZ_M_5_H25_CM
 70
0
 40
1.0
 41
0.0125
 42
0.00625
 43
3.75
 44
0.018750000000000003
 45
0.0
 46
0.0
 47
0.0
 48
0.0
 49
2.5
140
0.0125
141
2.5
142
0.00625
143
0.03937007874
144
100.0
145
0.0
146
0.5
147
0.005000000000000001
148
0.0
 69
0
 70
0
 71
0
 72
0
 73
0
 74
0
 75
0
 76
0
 77
1
 78
12
 79
3
170
0
171
3
172
1
173
0
174
0
175
0
176
0
177
0
178
0
179
2
271
2
272
2
273
2
274
3
275
0
276
0
277
2
278
46
279
2
280
0
281
0
282
0
283
0
284
8
285
0
286
0
288
1
289
3
290
0
340
4C
371
-2
372
-2
  0
DIMSTYLE
105
82
330
4
100
AcDbSymbolTableRecord
100
AcDbDimStyleTableRecord
  2
EZ_M_1_H25_CM
 70
0
 40
1.0
 41
0.0025
 42
0.00125
 43
3.75
 44
0.00375
 45
0.0
 46
0.0
 47
0.0
 48
0.0
 49
2.5
140
0.0025
141
2.5
142
0.00125
143
0.03937007874
144
100.0
145
0.0
146
0.5
147
0.001
148
0.0
 69
0
 70
0
 71
0
 72
0
 73
0
 74
0
 75
0
 76
0
 77
1
 78
12
 79
3
170
0
171
3
172
1
173
0
174
0
175
0
176
0
177
0
178
0
179
2
271
2
272
2
273
2
274
3
275
0
276
0
277
2
278
46
279
2
280
0
281
0
282
0
283
0
284
8
285
0
286
0
288
1
289
3
290
0
340
4C
371
-2
372
-2
  0
DIMSTYLE
105
83
330
4
100
AcDbSymbolTableRecord
100
AcDbDimStyleTableRecord
  2
EZ_RADIUS
 70
0
 40
1.0
 41
0.25
 42
0.125
 43
3.75
 44
0.375
 45
0.0
 46
0.0
 47
0.0
 48
0.0
 49
2.5
140
0.25
141
0.0
142
0.0
143
0.03937007874
144
100.0
145
0.0
146
0.5
147
0.1
148
0.0
 69
0
 70
0
 71
0
 72
0
 73
0
 74
0
 75
0
 76
0
 77
1
 78
12
 79
3
170
0
171
3
172
0
173
0
174
0
175
0
176
0
177
0
178
0
179
2
271
2
272
2
273
2
274
3
275
0
276
0
277
2
278
46
279
1
280
0
281
0
282
0
283
0
284
8
285
0
286
0
288
1
289
3
290
0
340
4C
342
84
371
-2
372
-2
  0
DIMSTYLE
105
88
330
4
100
AcDbSymbolTableRecord
100
AcDbDimStyleTableRecord
  2
EZ_RADIUS_INSIDE
 70
0
 40
1.0
 41
0.25
 42
0.125
 43
3.75
 44
0.375
 45
0.0
 46
0.0
 47
0.0
 48
0.0
 49
2.5
140
0.25
141
0.0
142
0.0
143
0.03937007874
144
100.0
145
0.0
146
0.5
147
0.1
148
0.0
 69
0
 70
0
 71
0
 72
0
 73
0
 74
0
 75
0
 76
0
 77
0
 78
12
 79
3
170
0
171
3
172
0
173
0
174
1
175
0
176
0
177
0
178
0
179
2
271
2
272
2
273
2
274
3
275
0
276
0
277
2
278
46
279
0
280
0
281
0
282
0
283
0
284
8
285
0
286
0
288
1
289
0
290
0
340
4C
342
84
371
-2
372
-2
  0
DIMSTYLE
105
89
330
4
100
AcDbSymbolTableRecord
100
AcDbDimStyleTableRecord
  2
EZ_CURVED
 70
0
 40
1.0
 41
0.25
 42
0.125
 43
3.75
 44
0.375
 45
0.0
 46
0.0
 47
0.0
 48
0.0
 49
2.5
140
0.25
141
2.5
142
0.0
143
0.03937007874
144
100.0
145
0.0
146
0.5
147
0.1
148
0.0
 69
0
 70
0
 71
0
 72
0
 73
0
 74
0
 75
0
 76
0
 77
1
 78
12
 79
2
 90
2
170
0
171
3
172
1
173
0
174
0
175
0
176
0
177
0
178
0
179
2
271
2
272
2
273
2
274
3
275
0
276
0
277
2
278
46
279
2
280
0
281
0
282
0
283
0
284
8
285
0
286
0
288
1
289
3
290
0
340
4C
371
-2
372
-2
  0
ENDTAB
  0
TABLE
  2
BLOCK_RECORD
  5
9
330
0
100
AcDbSymbolTable
 70
5
  0
BLOCK_RECORD
  5
17
330
9
100
AcDbSymbolTableRecord
100
AcDbBlockTableRecord
  2
*Model_Space
340
1A
 70
0
280
1
281
0
  0
BLOCK_RECORD
  5
1B
330
9
100
AcDbSymbolTableRecord
100
AcDbBlockTableRecord
  2
*Paper_Space
340
1E
 70
0
280
1
281
0
  0
BLOCK_RECORD
  5
74
330
9
100
AcDbSymbolTableRecord
100
AcDbBlockTableRecord
  2
_ARCHTICK
340
0
 70
0
280
1
281
0
  0
BLOCK_RECORD
  5
78
330
9
100
AcDbSymbolTableRecord
100
AcDbBlockTableRecord
  2
_CLOSEDFILLED
340
0
 70
0
280
1
281
0
  0
BLOCK_RECORD
  5
84
330
9
100
AcDbSymbolTableRecord
100
AcDbBlockTableRecord
  2
_CLOSEDBLANK
340
0
 70
0
280
1
281
0
  0
ENDTAB
  0
ENDSEC
  0
SECTION
  2
BLOCKS
  0
BLOCK
  5
18
330
17
100
AcDbEntity
  8
0
100
AcDbBlockBegin
  2
*Model_Space
 70
0
 10
0.0
 20
0.0
 30
0.0
  3
*Model_Space
  1

  0
ENDBLK
  5
19
330
17
100
AcDbEntity
  8
0
100
AcDbBlockEnd
  0
BLOCK
  5
1C
330
1B
100
AcDbEntity
  8
0
100
AcDbBlockBegin
  2
*Paper_Space
 70
0
 10
0.0
 20
0.0
 30
0.0
  3
*Paper_Space
  1

  0
ENDBLK
  5
1D
330
1B
100
AcDbEntity
  8
0
100
AcDbBlockEnd
  0
BLOCK
  5
75
330
74
100
AcDbEntity
  8
0
100
AcDbBlockBegin
  2
_ARCHTICK
 70
0
 10
0.0
 20
0.0
 30
0.0
  3
_ARCHTICK
  1

  0
LWPOLYLINE
  5
77
330
74
100
AcDbEntity
  8
0
  6
BYBLOCK
 62
0
100
AcDbPolyline
 90
2
 70
0
 43
0.15
 10
-0.5
 20
-0.5
 10
0.5
 20
0.5
  0
ENDBLK
  5
76
330
74
100
AcDbEntity
  8
0
100
AcDbBlockEnd
  0
BLOCK
  5
79
330
78
100
AcDbEntity
  8
0
100
AcDbBlockBegin
  2
_CLOSEDFILLED
 70
0
 10
0.0
 20
0.0
 30
0.0
  3
_CLOSEDFILLED
  1

  0
SOLID
  5
7B
330
78
100
AcDbEntity
  8
0
  6
BYBLOCK
 62
0
100
AcDbTrace
 10
-1.0
 20
0.16439898372402537
 30
0.0
 11
0.0
 21
0.0
 31
0.0
 12
-1.0
 22
-0.16439898372402537
 32
0.0
 13
-1.0
 23
-0.16439898372402537
 33
0.0
  0
ENDBLK
  5
7A
330
78
100
AcDbEntity
  8
0
100
AcDbBlockEnd
  0
BLOCK
  5
85
330
84
100
AcDbEntity
  8
0
100
AcDbBlockBegin
  2
_CLOSEDBLANK
 70
0
 10
0.0
 20
0.0
 30
0.0
  3
_CLOSEDBLANK
  1

  0
LWPOLYLINE
  5
87
330
84
100
AcDbEntity
  8
0
  6
BYBLOCK
 62
0
100
AcDbPolyline
 90
3
 70
1
 10
-1.0
 20
0.16439898372402537
 10
0.0
 20
0.0
 10
-1.0
 20
-0.16439898372402537
  0
ENDBLK
  5
86
330
84
100
AcDbEntity
  8
0
100
AcDbBlockEnd
  0
ENDSEC
  0
SECTION
  2
ENTITIES
  0
LWPOLYLINE
  5
9A
330
17
100
AcDbEntity
  8
BORDER
100
AcDbPolyline
 90
4
 70
1
 10
2.0
 20
2.0
 10
839.0
 20
2.0
 10
839.0
 20
592.0
 10
2.0
 20
592.0
  0
LWPOLYLINE
  5
9B
330
17
100
AcDbEntity
  8
BORDER
100
AcDbPolyline
 90
4
 70
1
 10
10.0
 20
10.0
 10
831.0
 20
10.0
 10
831.0
 20
584.0
 10
10.0
 20
584.0
  0
LWPOLYLINE
  5
9C
330
17
100
AcDbEntity
  8
TITLE
100
AcDbPolyline
 90
4
 70
1
 10
651.0
 20
10.0
 10
831.0
 20
10.0
 10
831.0
 20
66.0
 10
651.0
 20
66.0
  0
LINE
  5
9D
330
17
100
AcDbEntity
  8
TITLE
100
AcDbLine
 10
651.0
 20
20.0
 30
0.0
 11
831.0
 21
20.0
 31
0.0
  0
LINE
  5
9E
330
17
100
AcDbEntity
  8
TITLE
100
AcDbLine
 10
651.0
 20
30.0
 30
0.0
 11
831.0
 21
30.0
 31
0.0
  0
LINE
  5
9F
330
17
100
AcDbEntity
  8
TITLE
100
AcDbLine
 10
651.0
 20
40.0
 30
0.0
 11
831.0
 21
40.0
 31
0.0
  0
LINE
  5
A0
330
17
100
AcDbEntity
  8
TITLE
100
AcDbLine
 10
651.0
 20
50.0
 30
0.0
 11
831.0
 21
50.0
 31
0.0
  0
LINE
  5
A1
330
17
100
AcDbEntity
  8
TITLE
100
AcDbLine
 10
651.0
 20
58.0
 30
0.0
 11
831.0
 21
58.0
 31
0.0
  0
LINE
  5
A2
330
17
100
AcDbEntity
  8
TITLE
100
AcDbLine
 10
761.0
 20
10.0
 30
0.0
 11
761.0
 21
50.0
 31
0.0
  0
LINE
  5
A3
330
17
100
AcDbEntity
  8
TITLE
100
AcDbLine
 10
786.0
 20
50.0
 30
0.0
 11
786.0
 21
58.0
 31
0.0
  0
LINE
  5
A4
330
17
100
AcDbEntity
  8
TITLE
100
AcDbLine
 10
711.0
 20
50.0
 30
0.0
 11
711.0
 21
10.0
 31
0.0
  0
LINE
  5
A5
330
17
100
AcDbEntity
  8
TITLE
100
AcDbLine
 10
771.0
 20
30.0
 30
0.0
 11
771.0
 21
10.0
 31
0.0
  0
TEXT
  5
A6
330
17
100
AcDbEntity
  8
TEXT
100
AcDbText
 10
655.0
 20
60.5
 30
0.0
 40
2.4
  1
HELIOTOIT  -  OFF-GRID SOLAR CARPORT
  7
ARIAL
 11
655.0
 21
60.5
 31
0.0
100
AcDbText
 73
1
  0
TEXT
  5
A7
330
17
100
AcDbEntity
  8
TEXT
100
AcDbText
 10
789.0
 20
60.5
 30
0.0
 40
2.4
  1
FLAT-PACK KIT
  7
ARIAL
 11
789.0
 21
60.5
 31
0.0
100
AcDbText
 73
1
  0
TEXT
  5
A8
330
17
100
AcDbEntity
  8
TEXT
100
AcDbText
 10
655.0
 20
52.5
 30
0.0
 40
4.4
  1
CARPORT DUO
  7
ARIAL
 11
655.0
 21
52.5
 31
0.0
100
AcDbText
 73
1
  0
TEXT
  5
A9
330
17
100
AcDbEntity
  8
TEXT
100
AcDbText
 10
655.0
 20
42.5
 30
0.0
 40
1.6
  1
DRAWING:
  7
ARIAL
 11
655.0
 21
42.5
 31
0.0
100
AcDbText
 73
1
  0
TEXT
  5
AA
330
17
100
AcDbEntity
  8
TEXT
100
AcDbText
 10
655.0
 20
32.5
 30
0.0
 40
3.0
  1
EXPLODED ISOMETRIC
  7
ARIAL
 11
655.0
 21
32.5
 31
0.0
100
AcDbText
 73
1
  0
TEXT
  5
AB
330
17
100
AcDbEntity
  8
TEXT
100
AcDbText
 10
765.0
 20
42.5
 30
0.0
 40
1.6
  1
SCALE
  7
ARIAL
 11
765.0
 21
42.5
 31
0.0
100
AcDbText
 73
1
  0
TEXT
  5
AC
330
17
100
AcDbEntity
  8
TEXT
100
AcDbText
 10
765.0
 20
32.5
 30
0.0
 40
3.2
  1
NTS
  7
ARIAL
 11
765.0
 21
32.5
 31
0.0
100
AcDbText
 73
1
  0
TEXT
  5
AD
330
17
100
AcDbEntity
  8
TEXT
100
AcDbText
 10
655.0
 20
22.5
 30
0.0
 40
1.6
  1
DATE
  7
ARIAL
 11
655.0
 21
22.5
 31
0.0
100
AcDbText
 73
1
  0
TEXT
  5
AE
330
17
100
AcDbEntity
  8
TEXT
100
AcDbText
 10
655.0
 20
13.5
 30
0.0
 40
2.4
  1
2026-06-25
  7
ARIAL
 11
655.0
 21
13.5
 31
0.0
100
AcDbText
 73
1
  0
TEXT
  5
AF
330
17
100
AcDbEntity
  8
TEXT
100
AcDbText
 10
715.0
 20
22.5
 30
0.0
 40
1.6
  1
REV
  7
ARIAL
 11
715.0
 21
22.5
 31
0.0
100
AcDbText
 73
1
  0
TEXT
  5
B0
330
17
100
AcDbEntity
  8
TEXT
100
AcDbText
 10
715.0
 20
13.5
 30
0.0
 40
2.4
  1
01
  7
ARIAL
 11
715.0
 21
13.5
 31
0.0
100
AcDbText
 73
1
  0
TEXT
  5
B1
330
17
100
AcDbEntity
  8
TEXT
100
AcDbText
 10
775.0
 20
22.5
 30
0.0
 40
1.6
  1
SHEET
  7
ARIAL
 11
775.0
 21
22.5
 31
0.0
100
AcDbText
 73
1
  0
TEXT
  5
B2
330
17
100
AcDbEntity
  8
TEXT
100
AcDbText
 10
775.0
 20
13.5
 30
0.0
 40
2.4
  1
4 / 7
  7
ARIAL
 11
775.0
 21
13.5
 31
0.0
100
AcDbText
 73
1
  0
TEXT
  5
B3
330
17
100
AcDbEntity
  8
TEXT
100
AcDbText
 10
651.0
 20
68.5
 30
0.0
 40
1.7
  1
UNITS: mm   |   SHEET SIZE: DIN A1   |   PROJECTION: 1st ANGLE (E)   |   DRAWN: HÉLIOTOIT
  7
ARIAL
 11
651.0
 21
68.5
 31
0.0
100
AcDbText
 73
1
  0
TEXT
  5
B4
330
17
100
AcDbEntity
  8
TEXT
100
AcDbText
 10
14.0
 20
578.0
 30
0.0
 40
3.5
  1
DUO  -  EXPLODED ISOMETRIC
  7
ARIAL
 11
14.0
 21
578.0
 31
0.0
100
AcDbText
 73
2
  0
LWPOLYLINE
  5
B5
330
17
100
AcDbEntity
  8
ANCHOR
100
AcDbPolyline
 90
4
 70
1
 10
470.0
 20
250.9
 10
475.19615242270663
 20
253.9
 10
470.0
 20
256.9
 10
464.80384757729337
 20
253.9
  0
LWPOLYLINE
  5
B6
330
17
100
AcDbEntity
  8
ANCHOR
100
AcDbPolyline
 90
4
 70
1
 10
470.0
 20
249.1
 10
475.19615242270663
 20
252.1
 10
475.19615242270663
 20
253.9
 10
470.0
 20
250.9
  0
LWPOLYLINE
  5
B7
330
17
100
AcDbEntity
  8
ANCHOR
100
AcDbPolyline
 90
4
 70
1
 10
475.19615242270663
 20
252.1
 10
470.0
 20
255.1
 10
470.0
 20
256.9
 10
475.19615242270663
 20
253.9
  0
LWPOLYLINE
  5
B8
330
17
100
AcDbEntity
  8
ANCHOR
100
AcDbPolyline
 90
4
 70
1
 10
327.1058083755676
 20
333.4
 10
332.30196079827425
 20
336.4
 10
327.1058083755676
 20
339.4
 10
321.909655952861
 20
336.4
  0
LWPOLYLINE
  5
B9
330
17
100
AcDbEntity
  8
ANCHOR
100
AcDbPolyline
 90
4
 70
1
 10
327.1058083755676
 20
331.59999999999997
 10
332.30196079827425
 20
334.59999999999997
 10
332.30196079827425
 20
336.4
 10
327.1058083755676
 20
333.4
  0
LWPOLYLINE
  5
BA
330
17
100
AcDbEntity
  8
ANCHOR
100
AcDbPolyline
 90
4
 70
1
 10
332.30196079827425
 20
334.59999999999997
 10
327.1058083755676
 20
337.59999999999997
 10
327.1058083755676
 20
339.4
 10
332.30196079827425
 20
336.4
  0
LWPOLYLINE
  5
BB
330
17
100
AcDbEntity
  8
ANCHOR
100
AcDbPolyline
 90
4
 70
1
 10
541.4470958122162
 20
292.15
 10
546.6432482349228
 20
295.15
 10
541.4470958122162
 20
298.15
 10
536.2509433895095
 20
295.15
  0
LWPOLYLINE
  5
BC
330
17
100
AcDbEntity
  8
ANCHOR
100
AcDbPolyline
 90
4
 70
1
 10
541.4470958122162
 20
290.35
 10
546.6432482349228
 20
293.35
 10
546.6432482349228
 20
295.15
 10
541.4470958122162
 20
292.15
  0
LWPOLYLINE
  5
BD
330
17
100
AcDbEntity
  8
ANCHOR
100
AcDbPolyline
 90
4
 70
1
 10
546.6432482349228
 20
293.35
 10
541.4470958122162
 20
296.35
 10
541.4470958122162
 20
298.15
 10
546.6432482349228
 20
295.15
  0
LWPOLYLINE
  5
BE
330
17
100
AcDbEntity
  8
ANCHOR
100
AcDbPolyline
 90
4
 70
1
 10
398.55290418778384
 20
374.65
 10
403.74905661049047
 20
377.65
 10
398.55290418778384
 20
380.65
 10
393.3567517650772
 20
377.65
  0
LWPOLYLINE
  5
BF
330
17
100
AcDbEntity
  8
ANCHOR
100
AcDbPolyline
 90
4
 70
1
 10
398.55290418778384
 20
372.84999999999997
 10
403.74905661049047
 20
375.84999999999997
 10
403.74905661049047
 20
377.65
 10
398.55290418778384
 20
374.65
  0
LWPOLYLINE
  5
C0
330
17
100
AcDbEntity
  8
ANCHOR
100
AcDbPolyline
 90
4
 70
1
 10
403.74905661049047
 20
375.84999999999997
 10
398.55290418778384
 20
378.84999999999997
 10
398.55290418778384
 20
380.65
 10
403.74905661049047
 20
377.65
  0
LWPOLYLINE
  5
C1
330
17
100
AcDbEntity
  8
ANCHOR
100
AcDbPolyline
 90
4
 70
1
 10
612.8941916244323
 20
333.4
 10
618.0903440471391
 20
336.4
 10
612.8941916244323
 20
339.4
 10
607.6980392017258
 20
336.4
  0
LWPOLYLINE
  5
C2
330
17
100
AcDbEntity
  8
ANCHOR
100
AcDbPolyline
 90
4
 70
1
 10
612.8941916244323
 20
331.59999999999997
 10
618.0903440471391
 20
334.59999999999997
 10
618.0903440471391
 20
336.4
 10
612.8941916244323
 20
333.4
  0
LWPOLYLINE
  5
C3
330
17
100
AcDbEntity
  8
ANCHOR
100
AcDbPolyline
 90
4
 70
1
 10
618.0903440471391
 20
334.59999999999997
 10
612.8941916244323
 20
337.59999999999997
 10
612.8941916244323
 20
339.4
 10
618.0903440471391
 20
336.4
  0
LWPOLYLINE
  5
C4
330
17
100
AcDbEntity
  8
ANCHOR
100
AcDbPolyline
 90
4
 70
1
 10
470.0
 20
415.9
 10
475.19615242270663
 20
418.9
 10
470.0
 20
421.9
 10
464.80384757729337
 20
418.9
  0
LWPOLYLINE
  5
C5
330
17
100
AcDbEntity
  8
ANCHOR
100
AcDbPolyline
 90
4
 70
1
 10
470.0
 20
414.09999999999997
 10
475.19615242270663
 20
417.09999999999997
 10
475.19615242270663
 20
418.9
 10
470.0
 20
415.9
  0
LWPOLYLINE
  5
C6
330
17
100
AcDbEntity
  8
ANCHOR
100
AcDbPolyline
 90
4
 70
1
 10
475.19615242270663
 20
417.09999999999997
 10
470.0
 20
420.09999999999997
 10
470.0
 20
421.9
 10
475.19615242270663
 20
418.9
  0
LWPOLYLINE
  5
C7
330
17
100
AcDbEntity
  8
STRUCT
100
AcDbPolyline
 90
4
 70
1
 10
470.0
 20
332.2
 10
473.117691453624
 20
334.0
 10
470.0
 20
335.8
 10
466.882308546376
 20
334.0
  0
LWPOLYLINE
  5
C8
330
17
100
AcDbEntity
  8
STRUCT
100
AcDbPolyline
 90
4
 70
1
 10
470.0
 20
266.2
 10
473.117691453624
 20
268.0
 10
473.117691453624
 20
334.0
 10
470.0
 20
332.2
  0
LWPOLYLINE
  5
C9
330
17
100
AcDbEntity
  8
STRUCT
100
AcDbPolyline
 90
4
 70
1
 10
473.117691453624
 20
268.0
 10
470.0
 20
269.8
 10
470.0
 20
335.8
 10
473.117691453624
 20
334.0
  0
LWPOLYLINE
  5
CA
330
17
100
AcDbEntity
  8
STRUCT
100
AcDbPolyline
 90
4
 70
1
 10
327.1058083755676
 20
414.7
 10
330.2234998291916
 20
416.5
 10
327.1058083755676
 20
418.29999999999995
 10
323.98811692194363
 20
416.5
  0
LWPOLYLINE
  5
CB
330
17
100
AcDbEntity
  8
STRUCT
100
AcDbPolyline
 90
4
 70
1
 10
327.1058083755676
 20
348.7
 10
330.2234998291916
 20
350.5
 10
330.2234998291916
 20
416.5
 10
327.1058083755676
 20
414.7
  0
LWPOLYLINE
  5
CC
330
17
100
AcDbEntity
  8
STRUCT
100
AcDbPolyline
 90
4
 70
1
 10
330.2234998291916
 20
350.5
 10
327.1058083755676
 20
352.29999999999995
 10
327.1058083755676
 20
418.29999999999995
 10
330.2234998291916
 20
416.5
  0
LWPOLYLINE
  5
CD
330
17
100
AcDbEntity
  8
STRUCT
100
AcDbPolyline
 90
4
 70
1
 10
541.4470958122162
 20
373.45
 10
544.5647872658402
 20
375.25
 10
541.4470958122162
 20
377.05
 10
538.3294043585922
 20
375.25
  0
LWPOLYLINE
  5
CE
330
17
100
AcDbEntity
  8
STRUCT
100
AcDbPolyline
 90
4
 70
1
 10
541.4470958122162
 20
307.45
 10
544.5647872658402
 20
309.25
 10
544.5647872658402
 20
375.25
 10
541.4470958122162
 20
373.45
  0
LWPOLYLINE
  5
CF
330
17
100
AcDbEntity
  8
STRUCT
100
AcDbPolyline
 90
4
 70
1
 10
544.5647872658402
 20
309.25
 10
541.4470958122162
 20
311.05
 10
541.4470958122162
 20
377.05
 10
544.5647872658402
 20
375.25
  0
LWPOLYLINE
  5
D0
330
17
100
AcDbEntity
  8
STRUCT
100
AcDbPolyline
 90
4
 70
1
 10
398.55290418778384
 20
455.94999999999993
 10
401.6705956414078
 20
457.75
 10
398.55290418778384
 20
459.54999999999995
 10
395.43521273415985
 20
457.75
  0
LWPOLYLINE
  5
D1
330
17
100
AcDbEntity
  8
STRUCT
100
AcDbPolyline
 90
4
 70
1
 10
398.55290418778384
 20
389.94999999999993
 10
401.6705956414078
 20
391.75
 10
401.6705956414078
 20
457.75
 10
398.55290418778384
 20
455.94999999999993
  0
LWPOLYLINE
  5
D2
330
17
100
AcDbEntity
  8
STRUCT
100
AcDbPolyline
 90
4
 70
1
 10
401.6705956414078
 20
391.75
 10
398.55290418778384
 20
393.54999999999995
 10
398.55290418778384
 20
459.54999999999995
 10
401.6705956414078
 20
457.75
  0
LWPOLYLINE
  5
D3
330
17
100
AcDbEntity
  8
STRUCT
100
AcDbPolyline
 90
4
 70
1
 10
612.8941916244323
 20
414.7
 10
616.0118830780564
 20
416.5
 10
612.8941916244323
 20
418.29999999999995
 10
609.7765001708084
 20
416.5
  0
LWPOLYLINE
  5
D4
330
17
100
AcDbEntity
  8
STRUCT
100
AcDbPolyline
 90
4
 70
1
 10
612.8941916244323
 20
348.7
 10
616.0118830780564
 20
350.5
 10
616.0118830780564
 20
416.5
 10
612.8941916244323
 20
414.7
  0
LWPOLYLINE
  5
D5
330
17
100
AcDbEntity
  8
STRUCT
100
AcDbPolyline
 90
4
 70
1
 10
616.0118830780564
 20
350.5
 10
612.8941916244323
 20
352.29999999999995
 10
612.8941916244323
 20
418.29999999999995
 10
616.0118830780564
 20
416.5
  0
LWPOLYLINE
  5
D6
330
17
100
AcDbEntity
  8
STRUCT
100
AcDbPolyline
 90
4
 70
1
 10
470.0
 20
497.2
 10
473.117691453624
 20
499.0
 10
470.0
 20
500.79999999999995
 10
466.882308546376
 20
499.0
  0
LWPOLYLINE
  5
D7
330
17
100
AcDbEntity
  8
STRUCT
100
AcDbPolyline
 90
4
 70
1
 10
470.0
 20
431.19999999999993
 10
473.117691453624
 20
433.0
 10
473.117691453624
 20
499.0
 10
470.0
 20
497.2
  0
LWPOLYLINE
  5
D8
330
17
100
AcDbEntity
  8
STRUCT
100
AcDbPolyline
 90
4
 70
1
 10
473.117691453624
 20
433.0
 10
470.0
 20
434.79999999999995
 10
470.0
 20
500.79999999999995
 10
473.117691453624
 20
499.0
  0
LWPOLYLINE
  5
D9
330
17
100
AcDbEntity
  8
STRUCT
100
AcDbPolyline
 90
4
 70
1
 10
467.14211616751135
 20
350.95
 10
617.8305364260037
 20
437.95
 10
615.752075456921
 20
439.15
 10
465.0636551984287
 20
352.15
  0
LWPOLYLINE
  5
DA
330
17
100
AcDbEntity
  8
STRUCT
100
AcDbPolyline
 90
4
 70
1
 10
467.14211616751135
 20
346.15
 10
617.8305364260037
 20
433.15
 10
617.8305364260037
 20
437.95
 10
467.14211616751135
 20
350.95
  0
LWPOLYLINE
  5
DB
330
17
100
AcDbEntity
  8
STRUCT
100
AcDbPolyline
 90
4
 70
1
 10
617.8305364260037
 20
433.15
 10
615.752075456921
 20
434.35
 10
615.752075456921
 20
439.15
 10
617.8305364260037
 20
437.95
  0
LWPOLYLINE
  5
DC
330
17
100
AcDbEntity
  8
STRUCT
100
AcDbPolyline
 90
4
 70
1
 10
324.24792454307897
 20
433.45
 10
474.9363448015713
 20
520.45
 10
472.85788383248865
 20
521.65
 10
322.16946357399627
 20
434.65
  0
LWPOLYLINE
  5
DD
330
17
100
AcDbEntity
  8
STRUCT
100
AcDbPolyline
 90
4
 70
1
 10
324.24792454307897
 20
428.65
 10
474.9363448015713
 20
515.65
 10
474.9363448015713
 20
520.45
 10
324.24792454307897
 20
433.45
  0
LWPOLYLINE
  5
DE
330
17
100
AcDbEntity
  8
STRUCT
100
AcDbPolyline
 90
4
 70
1
 10
474.9363448015713
 20
515.65
 10
472.85788383248865
 20
516.8499999999999
 10
472.85788383248865
 20
521.65
 10
474.9363448015713
 20
520.45
  0
LWPOLYLINE
  5
DF
330
17
100
AcDbEntity
  8
STRUCT
100
AcDbPolyline
 90
4
 70
1
 10
472.85788383248865
 20
356.95
 10
474.9363448015713
 20
358.15
 10
324.24792454307897
 20
445.15
 10
322.16946357399627
 20
443.95
  0
LWPOLYLINE
  5
E0
330
17
100
AcDbEntity
  8
STRUCT
100
AcDbPolyline
 90
4
 70
1
 10
472.85788383248865
 20
352.15
 10
474.9363448015713
 20
353.35
 10
474.9363448015713
 20
358.15
 10
472.85788383248865
 20
356.95
  0
LWPOLYLINE
  5
E1
330
17
100
AcDbEntity
  8
STRUCT
100
AcDbPolyline
 90
4
 70
1
 10
474.9363448015713
 20
353.35
 10
324.24792454307897
 20
440.35
 10
324.24792454307897
 20
445.15
 10
474.9363448015713
 20
358.15
  0
LWPOLYLINE
  5
E2
330
17
100
AcDbEntity
  8
STRUCT
100
AcDbPolyline
 90
4
 70
1
 10
544.3049796447049
 20
398.2
 10
546.3834406137875
 20
399.4
 10
395.6950203552952
 20
486.4
 10
393.6165593862125
 20
485.19999999999993
  0
LWPOLYLINE
  5
E3
330
17
100
AcDbEntity
  8
STRUCT
100
AcDbPolyline
 90
4
 70
1
 10
544.3049796447049
 20
393.4
 10
546.3834406137875
 20
394.6
 10
546.3834406137875
 20
399.4
 10
544.3049796447049
 20
398.2
  0
LWPOLYLINE
  5
E4
330
17
100
AcDbEntity
  8
STRUCT
100
AcDbPolyline
 90
4
 70
1
 10
546.3834406137875
 20
394.6
 10
395.6950203552952
 20
481.59999999999997
 10
395.6950203552952
 20
486.4
 10
546.3834406137875
 20
399.4
  0
LWPOLYLINE
  5
E5
330
17
100
AcDbEntity
  8
STRUCT
100
AcDbPolyline
 90
4
 70
1
 10
615.752075456921
 20
439.45
 10
617.8305364260037
 20
440.65
 10
467.14211616751135
 20
527.65
 10
465.0636551984287
 20
526.45
  0
LWPOLYLINE
  5
E6
330
17
100
AcDbEntity
  8
STRUCT
100
AcDbPolyline
 90
4
 70
1
 10
615.752075456921
 20
434.65
 10
617.8305364260037
 20
435.85
 10
617.8305364260037
 20
440.65
 10
615.752075456921
 20
439.45
  0
LWPOLYLINE
  5
E7
330
17
100
AcDbEntity
  8
STRUCT
100
AcDbPolyline
 90
4
 70
1
 10
617.8305364260037
 20
435.85
 10
467.14211616751135
 20
522.8499999999999
 10
467.14211616751135
 20
527.65
 10
617.8305364260037
 20
440.65
  0
LWPOLYLINE
  5
E8
330
17
100
AcDbEntity
  8
PURLIN
100
AcDbPolyline
 90
4
 70
1
 10
435.7053940101362
 20
393.1
 10
586.3938142686286
 20
480.1
 10
585.3545837840873
 20
480.7
 10
434.6661635255949
 20
393.7
  0
LWPOLYLINE
  5
E9
330
17
100
AcDbEntity
  8
PURLIN
100
AcDbPolyline
 90
4
 70
1
 10
435.7053940101362
 20
391.29999999999995
 10
586.3938142686286
 20
478.29999999999995
 10
586.3938142686286
 20
480.1
 10
435.7053940101362
 20
393.1
  0
LWPOLYLINE
  5
EA
330
17
100
AcDbEntity
  8
PURLIN
100
AcDbPolyline
 90
4
 70
1
 10
586.3938142686286
 20
478.29999999999995
 10
585.3545837840873
 20
478.9
 10
585.3545837840873
 20
480.7
 10
586.3938142686286
 20
480.1
  0
LWPOLYLINE
  5
EB
330
17
100
AcDbEntity
  8
PURLIN
100
AcDbPolyline
 90
4
 70
1
 10
399.3323270511898
 20
414.1
 10
550.0207473096822
 20
501.1
 10
548.9815168251408
 20
501.7
 10
398.2930965666485
 20
414.7
  0
LWPOLYLINE
  5
EC
330
17
100
AcDbEntity
  8
PURLIN
100
AcDbPolyline
 90
4
 70
1
 10
399.3323270511898
 20
412.29999999999995
 10
550.0207473096822
 20
499.29999999999995
 10
550.0207473096822
 20
501.1
 10
399.3323270511898
 20
414.1
  0
LWPOLYLINE
  5
ED
330
17
100
AcDbEntity
  8
PURLIN
100
AcDbPolyline
 90
4
 70
1
 10
550.0207473096822
 20
499.29999999999995
 10
548.9815168251408
 20
499.9
 10
548.9815168251408
 20
501.7
 10
550.0207473096822
 20
501.1
  0
LWPOLYLINE
  5
EE
330
17
100
AcDbEntity
  8
PURLIN
100
AcDbPolyline
 90
4
 70
1
 10
391.01848317485917
 20
418.9
 10
541.7069034333515
 20
505.9
 10
540.6676729488102
 20
506.5
 10
389.9792526903179
 20
419.5
  0
LWPOLYLINE
  5
EF
330
17
100
AcDbEntity
  8
PURLIN
100
AcDbPolyline
 90
4
 70
1
 10
391.01848317485917
 20
417.1
 10
541.7069034333515
 20
504.1
 10
541.7069034333515
 20
505.9
 10
391.01848317485917
 20
418.9
  0
LWPOLYLINE
  5
F0
330
17
100
AcDbEntity
  8
PURLIN
100
AcDbPolyline
 90
4
 70
1
 10
541.7069034333515
 20
504.1
 10
540.6676729488102
 20
504.7
 10
540.6676729488102
 20
506.5
 10
541.7069034333515
 20
505.9
  0
LWPOLYLINE
  5
F1
330
17
100
AcDbEntity
  8
PURLIN
100
AcDbPolyline
 90
4
 70
1
 10
354.64541621591275
 20
439.9
 10
505.3338364744051
 20
526.9
 10
504.2946059898638
 20
527.5
 10
353.60618573137145
 20
440.5
  0
LWPOLYLINE
  5
F2
330
17
100
AcDbEntity
  8
PURLIN
100
AcDbPolyline
 90
4
 70
1
 10
354.64541621591275
 20
438.1
 10
505.3338364744051
 20
525.0999999999999
 10
505.3338364744051
 20
526.9
 10
354.64541621591275
 20
439.9
  0
LWPOLYLINE
  5
F3
330
17
100
AcDbEntity
  8
PURLIN
100
AcDbPolyline
 90
4
 70
1
 10
505.3338364744051
 20
525.0999999999999
 10
504.2946059898638
 20
525.7
 10
504.2946059898638
 20
527.5
 10
505.3338364744051
 20
526.9
  0
LWPOLYLINE
  5
F4
330
17
100
AcDbEntity
  8
PANEL
100
AcDbPolyline
 90
4
 70
1
 10
456.49000370096275
 20
421.6
 10
485.0688420258492
 20
438.1
 10
440.90154643284285
 20
463.6
 10
412.3227081079564
 20
447.1
  0
LWPOLYLINE
  5
F5
330
17
100
AcDbEntity
  8
PANEL
100
AcDbPolyline
 90
4
 70
1
 10
456.49000370096275
 20
420.4
 10
485.0688420258492
 20
436.9
 10
485.0688420258492
 20
438.1
 10
456.49000370096275
 20
421.6
  0
LWPOLYLINE
  5
F6
330
17
100
AcDbEntity
  8
PANEL
100
AcDbPolyline
 90
4
 70
1
 10
485.0688420258492
 20
436.9
 10
440.90154643284285
 20
462.4
 10
440.90154643284285
 20
463.6
 10
485.0688420258492
 20
438.1
  0
LWPOLYLINE
  5
F7
330
17
100
AcDbEntity
  8
PANEL
100
AcDbPolyline
 90
4
 70
1
 10
485.5884572681199
 20
438.4
 10
514.1672955930064
 20
454.9
 10
470.0
 20
480.4
 10
441.4211616751135
 20
463.9
  0
LWPOLYLINE
  5
F8
330
17
100
AcDbEntity
  8
PANEL
100
AcDbPolyline
 90
4
 70
1
 10
485.5884572681199
 20
437.2
 10
514.1672955930064
 20
453.7
 10
514.1672955930064
 20
454.9
 10
485.5884572681199
 20
438.4
  0
LWPOLYLINE
  5
F9
330
17
100
AcDbEntity
  8
PANEL
100
AcDbPolyline
 90
4
 70
1
 10
514.1672955930064
 20
453.7
 10
470.0
 20
479.2
 10
470.0
 20
480.4
 10
514.1672955930064
 20
454.9
  0
LWPOLYLINE
  5
FA
330
17
100
AcDbEntity
  8
PANEL
100
AcDbPolyline
 90
4
 70
1
 10
514.686910835277
 20
455.2
 10
543.2657491601635
 20
471.7
 10
499.09845356715715
 20
497.2
 10
470.5196152422707
 20
480.7
  0
LWPOLYLINE
  5
FB
330
17
100
AcDbEntity
  8
PANEL
100
AcDbPolyline
 90
4
 70
1
 10
514.686910835277
 20
454.0
 10
543.2657491601635
 20
470.5
 10
543.2657491601635
 20
471.7
 10
514.686910835277
 20
455.2
  0
LWPOLYLINE
  5
FC
330
17
100
AcDbEntity
  8
PANEL
100
AcDbPolyline
 90
4
 70
1
 10
543.2657491601635
 20
470.5
 10
499.09845356715715
 20
496.0
 10
499.09845356715715
 20
497.2
 10
543.2657491601635
 20
471.7
  0
LWPOLYLINE
  5
FD
330
17
100
AcDbEntity
  8
PANEL
100
AcDbPolyline
 90
4
 70
1
 10
543.7853644024342
 20
472.0
 10
572.3642027273206
 20
488.5
 10
528.1969071343143
 20
514.0
 10
499.6180688094278
 20
497.5
  0
LWPOLYLINE
  5
FE
330
17
100
AcDbEntity
  8
PANEL
100
AcDbPolyline
 90
4
 70
1
 10
543.7853644024342
 20
470.79999999999995
 10
572.3642027273206
 20
487.29999999999995
 10
572.3642027273206
 20
488.5
 10
543.7853644024342
 20
472.0
  0
LWPOLYLINE
  5
FF
330
17
100
AcDbEntity
  8
PANEL
100
AcDbPolyline
 90
4
 70
1
 10
572.3642027273206
 20
487.29999999999995
 10
528.1969071343143
 20
512.8
 10
528.1969071343143
 20
514.0
 10
572.3642027273206
 20
488.5
  0
LWPOLYLINE
  5
100
330
17
100
AcDbEntity
  8
PANEL
100
AcDbPolyline
 90
4
 70
1
 10
411.8030928656857
 20
447.4
 10
440.3819311905722
 20
463.9
 10
396.2146355975658
 20
489.4
 10
367.6357972726794
 20
472.9
  0
LWPOLYLINE
  5
101
330
17
100
AcDbEntity
  8
PANEL
100
AcDbPolyline
 90
4
 70
1
 10
411.8030928656857
 20
446.2
 10
440.3819311905722
 20
462.7
 10
440.3819311905722
 20
463.9
 10
411.8030928656857
 20
447.4
  0
LWPOLYLINE
  5
102
330
17
100
AcDbEntity
  8
PANEL
100
AcDbPolyline
 90
4
 70
1
 10
440.3819311905722
 20
462.7
 10
396.2146355975658
 20
488.2
 10
396.2146355975658
 20
489.4
 10
440.3819311905722
 20
463.9
  0
LWPOLYLINE
  5
103
330
17
100
AcDbEntity
  8
PANEL
100
AcDbPolyline
 90
4
 70
1
 10
440.90154643284285
 20
464.2
 10
469.4803847577293
 20
480.7
 10
425.31308916472295
 20
506.2
 10
396.7342508398365
 20
489.7
  0
LWPOLYLINE
  5
104
330
17
100
AcDbEntity
  8
PANEL
100
AcDbPolyline
 90
4
 70
1
 10
440.90154643284285
 20
463.0
 10
469.4803847577293
 20
479.5
 10
469.4803847577293
 20
480.7
 10
440.90154643284285
 20
464.2
  0
LWPOLYLINE
  5
105
330
17
100
AcDbEntity
  8
PANEL
100
AcDbPolyline
 90
4
 70
1
 10
469.4803847577293
 20
479.5
 10
425.31308916472295
 20
505.0
 10
425.31308916472295
 20
506.2
 10
469.4803847577293
 20
480.7
  0
LWPOLYLINE
  5
106
330
17
100
AcDbEntity
  8
PANEL
100
AcDbPolyline
 90
4
 70
1
 10
470.0
 20
481.0
 10
498.5788383248865
 20
497.5
 10
454.4115427318801
 20
523.0
 10
425.8327044069936
 20
506.5
  0
LWPOLYLINE
  5
107
330
17
100
AcDbEntity
  8
PANEL
100
AcDbPolyline
 90
4
 70
1
 10
470.0
 20
479.79999999999995
 10
498.5788383248865
 20
496.29999999999995
 10
498.5788383248865
 20
497.5
 10
470.0
 20
481.0
  0
LWPOLYLINE
  5
108
330
17
100
AcDbEntity
  8
PANEL
100
AcDbPolyline
 90
4
 70
1
 10
498.5788383248865
 20
496.29999999999995
 10
454.4115427318801
 20
521.8
 10
454.4115427318801
 20
523.0
 10
498.5788383248865
 20
497.5
  0
LWPOLYLINE
  5
109
330
17
100
AcDbEntity
  8
PANEL
100
AcDbPolyline
 90
4
 70
1
 10
499.09845356715715
 20
497.79999999999995
 10
527.6772918920436
 20
514.3
 10
483.50999629903725
 20
539.8
 10
454.9311579741508
 20
523.3
  0
LWPOLYLINE
  5
10A
330
17
100
AcDbEntity
  8
PANEL
100
AcDbPolyline
 90
4
 70
1
 10
499.09845356715715
 20
496.6
 10
527.6772918920436
 20
513.0999999999999
 10
527.6772918920436
 20
514.3
 10
499.09845356715715
 20
497.79999999999995
  0
LWPOLYLINE
  5
10B
330
17
100
AcDbEntity
  8
PANEL
100
AcDbPolyline
 90
4
 70
1
 10
527.6772918920436
 20
513.0999999999999
 10
483.50999629903725
 20
538.5999999999999
 10
483.50999629903725
 20
539.8
 10
527.6772918920436
 20
514.3
  0
LWPOLYLINE
  5
10C
330
17
100
AcDbEntity
  8
CTRLBOX
100
AcDbPolyline
 90
4
 70
1
 10
486.8874953737966
 20
454.75
 10
494.6817240078565
 20
459.25
 10
471.2990381056767
 20
472.75
 10
463.5048094716167
 20
468.25
  0
LWPOLYLINE
  5
10D
330
17
100
AcDbEntity
  8
CTRLBOX
100
AcDbPolyline
 90
4
 70
1
 10
486.8874953737966
 20
442.75
 10
494.6817240078565
 20
447.25
 10
494.6817240078565
 20
459.25
 10
486.8874953737966
 20
454.75
  0
LWPOLYLINE
  5
10E
330
17
100
AcDbEntity
  8
CTRLBOX
100
AcDbPolyline
 90
4
 70
1
 10
494.6817240078565
 20
447.25
 10
471.2990381056767
 20
460.75
 10
471.2990381056767
 20
472.75
 10
494.6817240078565
 20
459.25
  0
LINE
  5
10F
330
17
100
AcDbEntity
  8
HIDDEN
100
AcDbLine
 10
470.0
 20
341.5
 30
0.0
 11
470.0
 21
349.0
 31
0.0
  0
SOLID
  5
110
330
17
100
AcDbEntity
  8
HIDDEN
100
AcDbTrace
 10
470.0
 20
349.0
 30
0.0
 11
469.296
 21
346.8
 31
0.0
 12
470.704
 22
346.8
 32
0.0
 13
470.704
 23
346.8
 33
0.0
  0
LINE
  5
111
330
17
100
AcDbEntity
  8
HIDDEN
100
AcDbLine
 10
470.0
 20
418.0
 30
0.0
 11
470.0
 21
430.0
 31
0.0
  0
SOLID
  5
112
330
17
100
AcDbEntity
  8
HIDDEN
100
AcDbTrace
 10
470.0
 20
430.0
 30
0.0
 11
469.296
 21
427.8
 31
0.0
 12
470.704
 22
427.8
 32
0.0
 13
470.704
 23
427.8
 33
0.0
  0
LINE
  5
113
330
17
100
AcDbEntity
  8
HIDDEN
100
AcDbLine
 10
470.0
 20
437.79999999999995
 30
0.0
 11
470.0
 21
457.0
 31
0.0
  0
SOLID
  5
114
330
17
100
AcDbEntity
  8
HIDDEN
100
AcDbTrace
 10
470.0
 20
457.0
 30
0.0
 11
469.296
 21
454.8
 31
0.0
 12
470.704
 22
454.8
 32
0.0
 13
470.704
 23
454.8
 33
0.0
  0
LINE
  5
115
330
17
100
AcDbEntity
  8
HIDDEN
100
AcDbLine
 10
470.0
 20
461.79999999999995
 30
0.0
 11
470.0
 21
478.0
 31
0.0
  0
SOLID
  5
116
330
17
100
AcDbEntity
  8
HIDDEN
100
AcDbTrace
 10
470.0
 20
478.0
 30
0.0
 11
469.296
 21
475.8
 31
0.0
 12
470.704
 22
475.8
 32
0.0
 13
470.704
 23
475.8
 33
0.0
  0
LINE
  5
117
330
17
100
AcDbEntity
  8
LEADER
100
AcDbLine
 10
470.0
 20
296.2
 30
0.0
 11
120.0
 21
360.0
 31
0.0
  0
CIRCLE
  5
118
330
17
100
AcDbEntity
  8
LEADER
100
AcDbCircle
 10
120.0
 20
360.0
 30
0.0
 40
3.2
  0
TEXT
  5
119
330
17
100
AcDbEntity
  8
TEXT
100
AcDbText
 10
120.0
 20
360.0
 30
0.0
 40
2.0
  1
01
  7
ARIAL
 72
1
 11
120.0
 21
360.0
 31
0.0
100
AcDbText
 73
2
  0
LINE
  5
11A
330
17
100
AcDbEntity
  8
LEADER
100
AcDbLine
 10
466.10288568297005
 20
349.15
 30
0.0
 11
120.0
 21
400.0
 31
0.0
  0
CIRCLE
  5
11B
330
17
100
AcDbEntity
  8
LEADER
100
AcDbCircle
 10
120.0
 20
400.0
 30
0.0
 40
3.2
  0
TEXT
  5
11C
330
17
100
AcDbEntity
  8
TEXT
100
AcDbText
 10
120.0
 20
400.0
 30
0.0
 40
2.0
  1
02
  7
ARIAL
 72
1
 11
120.0
 21
400.0
 31
0.0
100
AcDbText
 73
2
  0
LINE
  5
11D
330
17
100
AcDbEntity
  8
LEADER
100
AcDbLine
 10
473.89711431702995
 20
353.95
 30
0.0
 11
120.0
 21
430.0
 31
0.0
  0
CIRCLE
  5
11E
330
17
100
AcDbEntity
  8
LEADER
100
AcDbCircle
 10
120.0
 20
430.0
 30
0.0
 40
3.2
  0
TEXT
  5
11F
330
17
100
AcDbEntity
  8
TEXT
100
AcDbText
 10
120.0
 20
430.0
 30
0.0
 40
2.0
  1
03
  7
ARIAL
 72
1
 11
120.0
 21
430.0
 31
0.0
100
AcDbText
 73
2
  0
LINE
  5
120
330
17
100
AcDbEntity
  8
LEADER
100
AcDbLine
 10
435.18577876786554
 20
392.5
 30
0.0
 11
120.0
 21
460.0
 31
0.0
  0
CIRCLE
  5
121
330
17
100
AcDbEntity
  8
LEADER
100
AcDbCircle
 10
120.0
 20
460.0
 30
0.0
 40
3.2
  0
TEXT
  5
122
330
17
100
AcDbEntity
  8
TEXT
100
AcDbText
 10
120.0
 20
460.0
 30
0.0
 40
2.0
  1
04
  7
ARIAL
 72
1
 11
120.0
 21
460.0
 31
0.0
100
AcDbText
 73
2
  0
LINE
  5
123
330
17
100
AcDbEntity
  8
LEADER
100
AcDbLine
 10
456.49000370096275
 20
421.6
 30
0.0
 11
120.0
 21
500.0
 31
0.0
  0
CIRCLE
  5
124
330
17
100
AcDbEntity
  8
LEADER
100
AcDbCircle
 10
120.0
 20
500.0
 30
0.0
 40
3.2
  0
TEXT
  5
125
330
17
100
AcDbEntity
  8
TEXT
100
AcDbText
 10
120.0
 20
500.0
 30
0.0
 40
2.0
  1
09
  7
ARIAL
 72
1
 11
120.0
 21
500.0
 31
0.0
100
AcDbText
 73
2
  0
LINE
  5
126
330
17
100
AcDbEntity
  8
LEADER
100
AcDbLine
 10
470.0
 20
250.0
 30
0.0
 11
120.0
 21
320.0
 31
0.0
  0
CIRCLE
  5
127
330
17
100
AcDbEntity
  8
LEADER
100
AcDbCircle
 10
120.0
 20
320.0
 30
0.0
 40
3.2
  0
TEXT
  5
128
330
17
100
AcDbEntity
  8
TEXT
100
AcDbText
 10
120.0
 20
320.0
 30
0.0
 40
2.0
  1
06
  7
ARIAL
 72
1
 11
120.0
 21
320.0
 31
0.0
100
AcDbText
 73
2
  0
LINE
  5
129
330
17
100
AcDbEntity
  8
LEADER
100
AcDbLine
 10
475.19615242270663
 20
455.5
 30
0.0
 11
760.0
 21
300.0
 31
0.0
  0
CIRCLE
  5
12A
330
17
100
AcDbEntity
  8
LEADER
100
AcDbCircle
 10
760.0
 20
300.0
 30
0.0
 40
3.2
  0
TEXT
  5
12B
330
17
100
AcDbEntity
  8
TEXT
100
AcDbText
 10
760.0
 20
300.0
 30
0.0
 40
2.0
  1
13
  7
ARIAL
 72
1
 11
760.0
 21
300.0
 31
0.0
100
AcDbText
 73
2
  0
TEXT
  5
12C
330
17
100
AcDbEntity
  8
TEXT
100
AcDbText
 10
30.0
 20
560.0
 30
0.0
 40
1.8
  1
EXPLODED ASSEMBLY - sequence: 06 anchors -> 01 posts (+05 sleeves) -> 02/03 beams -> 04 purlins (+12 saddles) -> 09 panels (+10/11 clamps) -> 13 control box.
  7
ARIAL
 11
30.0
 21
560.0
 31
0.0
100
AcDbText
 73
2
  0
TEXT
  5
12D
330
17
100
AcDbEntity
  8
TEXT
100
AcDbText
 10
30.0
 20
212.5
 30
0.0
 40
2.6
  1
PART LIST
  7
ARIAL
 11
30.0
 21
212.5
 31
0.0
100
AcDbText
 73
1
  0
LWPOLYLINE
  5
12E
330
17
100
AcDbEntity
  8
TITLE
100
AcDbPolyline
 90
4
 70
1
 10
30.0
 20
134.0
 10
188.0
 20
134.0
 10
188.0
 20
210.0
 10
30.0
 20
210.0
  0
LINE
  5
12F
330
17
100
AcDbEntity
  8
TITLE
100
AcDbLine
 10
30.0
 20
204.0
 30
0.0
 11
188.0
 21
204.0
 31
0.0
  0
LINE
  5
130
330
17
100
AcDbEntity
  8
DIM
100
AcDbLine
 10
30.0
 20
199.0
 30
0.0
 11
188.0
 21
199.0
 31
0.0
  0
LINE
  5
131
330
17
100
AcDbEntity
  8
DIM
100
AcDbLine
 10
30.0
 20
194.0
 30
0.0
 11
188.0
 21
194.0
 31
0.0
  0
LINE
  5
132
330
17
100
AcDbEntity
  8
DIM
100
AcDbLine
 10
30.0
 20
189.0
 30
0.0
 11
188.0
 21
189.0
 31
0.0
  0
LINE
  5
133
330
17
100
AcDbEntity
  8
DIM
100
AcDbLine
 10
30.0
 20
184.0
 30
0.0
 11
188.0
 21
184.0
 31
0.0
  0
LINE
  5
134
330
17
100
AcDbEntity
  8
DIM
100
AcDbLine
 10
30.0
 20
179.0
 30
0.0
 11
188.0
 21
179.0
 31
0.0
  0
LINE
  5
135
330
17
100
AcDbEntity
  8
DIM
100
AcDbLine
 10
30.0
 20
174.0
 30
0.0
 11
188.0
 21
174.0
 31
0.0
  0
LINE
  5
136
330
17
100
AcDbEntity
  8
DIM
100
AcDbLine
 10
30.0
 20
169.0
 30
0.0
 11
188.0
 21
169.0
 31
0.0
  0
LINE
  5
137
330
17
100
AcDbEntity
  8
DIM
100
AcDbLine
 10
30.0
 20
164.0
 30
0.0
 11
188.0
 21
164.0
 31
0.0
  0
LINE
  5
138
330
17
100
AcDbEntity
  8
DIM
100
AcDbLine
 10
30.0
 20
159.0
 30
0.0
 11
188.0
 21
159.0
 31
0.0
  0
LINE
  5
139
330
17
100
AcDbEntity
  8
DIM
100
AcDbLine
 10
30.0
 20
154.0
 30
0.0
 11
188.0
 21
154.0
 31
0.0
  0
LINE
  5
13A
330
17
100
AcDbEntity
  8
DIM
100
AcDbLine
 10
30.0
 20
149.0
 30
0.0
 11
188.0
 21
149.0
 31
0.0
  0
LINE
  5
13B
330
17
100
AcDbEntity
  8
DIM
100
AcDbLine
 10
30.0
 20
144.0
 30
0.0
 11
188.0
 21
144.0
 31
0.0
  0
LINE
  5
13C
330
17
100
AcDbEntity
  8
DIM
100
AcDbLine
 10
30.0
 20
139.0
 30
0.0
 11
188.0
 21
139.0
 31
0.0
  0
LINE
  5
13D
330
17
100
AcDbEntity
  8
TITLE
100
AcDbLine
 10
41.0
 20
134.0
 30
0.0
 11
41.0
 21
210.0
 31
0.0
  0
LINE
  5
13E
330
17
100
AcDbEntity
  8
TITLE
100
AcDbLine
 10
131.0
 20
134.0
 30
0.0
 11
131.0
 21
210.0
 31
0.0
  0
LINE
  5
13F
330
17
100
AcDbEntity
  8
TITLE
100
AcDbLine
 10
144.0
 20
134.0
 30
0.0
 11
144.0
 21
210.0
 31
0.0
  0
TEXT
  5
140
330
17
100
AcDbEntity
  8
TEXT
100
AcDbText
 10
32.0
 20
207.0
 30
0.0
 40
1.7
  1
REF
  7
ARIAL
 11
32.0
 21
207.0
 31
0.0
100
AcDbText
 73
2
  0
TEXT
  5
141
330
17
100
AcDbEntity
  8
TEXT
100
AcDbText
 10
43.0
 20
207.0
 30
0.0
 40
1.7
  1
DESCRIPTION
  7
ARIAL
 11
43.0
 21
207.0
 31
0.0
100
AcDbText
 73
2
  0
TEXT
  5
142
330
17
100
AcDbEntity
  8
TEXT
100
AcDbText
 10
133.0
 20
207.0
 30
0.0
 40
1.7
  1
QTY
  7
ARIAL
 11
133.0
 21
207.0
 31
0.0
100
AcDbText
 73
2
  0
TEXT
  5
143
330
17
100
AcDbEntity
  8
TEXT
100
AcDbText
 10
146.0
 20
207.0
 30
0.0
 40
1.7
  1
MATERIAL
  7
ARIAL
 11
146.0
 21
207.0
 31
0.0
100
AcDbText
 73
2
  0
TEXT
  5
144
330
17
100
AcDbEntity
  8
TEXT
100
AcDbText
 10
32.0
 20
201.5
 30
0.0
 40
1.7
  1
01
  7
ARIAL
 11
32.0
 21
201.5
 31
0.0
100
AcDbText
 73
2
  0
TEXT
  5
145
330
17
100
AcDbEntity
  8
TEXT
100
AcDbText
 10
43.0
 20
201.5
 30
0.0
 40
1.7
  1
Vertical post 120x120x3 SHS
  7
ARIAL
 11
43.0
 21
201.5
 31
0.0
100
AcDbText
 73
2
  0
TEXT
  5
146
330
17
100
AcDbEntity
  8
TEXT
100
AcDbText
 10
133.0
 20
201.5
 30
0.0
 40
1.7
  1
12
  7
ARIAL
 11
133.0
 21
201.5
 31
0.0
100
AcDbText
 73
2
  0
TEXT
  5
147
330
17
100
AcDbEntity
  8
TEXT
100
AcDbText
 10
146.0
 20
201.5
 30
0.0
 40
1.7
  1
Alu 6063-T5, RAL 9
  7
ARIAL
 11
146.0
 21
201.5
 31
0.0
100
AcDbText
 73
2
  0
TEXT
  5
148
330
17
100
AcDbEntity
  8
TEXT
100
AcDbText
 10
32.0
 20
196.5
 30
0.0
 40
1.7
  1
02
  7
ARIAL
 11
32.0
 21
196.5
 31
0.0
100
AcDbText
 73
2
  0
TEXT
  5
149
330
17
100
AcDbEntity
  8
TEXT
100
AcDbText
 10
43.0
 20
196.5
 30
0.0
 40
1.7
  1
Longitudinal beam 160x80x4 RHS
  7
ARIAL
 11
43.0
 21
196.5
 31
0.0
100
AcDbText
 73
2
  0
TEXT
  5
14A
330
17
100
AcDbEntity
  8
TEXT
100
AcDbText
 10
133.0
 20
196.5
 30
0.0
 40
1.7
  1
6
  7
ARIAL
 11
133.0
 21
196.5
 31
0.0
100
AcDbText
 73
2
  0
TEXT
  5
14B
330
17
100
AcDbEntity
  8
TEXT
100
AcDbText
 10
146.0
 20
196.5
 30
0.0
 40
1.7
  1
Alu 6063-T5, RAL 9
  7
ARIAL
 11
146.0
 21
196.5
 31
0.0
100
AcDbText
 73
2
  0
TEXT
  5
14C
330
17
100
AcDbEntity
  8
TEXT
100
AcDbText
 10
32.0
 20
191.5
 30
0.0
 40
1.7
  1
03
  7
ARIAL
 11
32.0
 21
191.5
 31
0.0
100
AcDbText
 73
2
  0
TEXT
  5
14D
330
17
100
AcDbEntity
  8
TEXT
100
AcDbText
 10
43.0
 20
191.5
 30
0.0
 40
1.7
  1
Transverse beam 160x80x4 RHS
  7
ARIAL
 11
43.0
 21
191.5
 31
0.0
100
AcDbText
 73
2
  0
TEXT
  5
14E
330
17
100
AcDbEntity
  8
TEXT
100
AcDbText
 10
133.0
 20
191.5
 30
0.0
 40
1.7
  1
6
  7
ARIAL
 11
133.0
 21
191.5
 31
0.0
100
AcDbText
 73
2
  0
TEXT
  5
14F
330
17
100
AcDbEntity
  8
TEXT
100
AcDbText
 10
146.0
 20
191.5
 30
0.0
 40
1.7
  1
Alu 6063-T5, RAL 9
  7
ARIAL
 11
146.0
 21
191.5
 31
0.0
100
AcDbText
 73
2
  0
TEXT
  5
150
330
17
100
AcDbEntity
  8
TEXT
100
AcDbText
 10
32.0
 20
186.5
 30
0.0
 40
1.7
  1
04
  7
ARIAL
 11
32.0
 21
186.5
 31
0.0
100
AcDbText
 73
2
  0
TEXT
  5
151
330
17
100
AcDbEntity
  8
TEXT
100
AcDbText
 10
43.0
 20
186.5
 30
0.0
 40
1.7
  1
Roof purlin 60x40x3 RHS
  7
ARIAL
 11
43.0
 21
186.5
 31
0.0
100
AcDbText
 73
2
  0
TEXT
  5
152
330
17
100
AcDbEntity
  8
TEXT
100
AcDbText
 10
133.0
 20
186.5
 30
0.0
 40
1.7
  1
12
  7
ARIAL
 11
133.0
 21
186.5
 31
0.0
100
AcDbText
 73
2
  0
TEXT
  5
153
330
17
100
AcDbEntity
  8
TEXT
100
AcDbText
 10
146.0
 20
186.5
 30
0.0
 40
1.7
  1
Alu 6063-T5, RAL 9
  7
ARIAL
 11
146.0
 21
186.5
 31
0.0
100
AcDbText
 73
2
  0
TEXT
  5
154
330
17
100
AcDbEntity
  8
TEXT
100
AcDbText
 10
32.0
 20
181.5
 30
0.0
 40
1.7
  1
05
  7
ARIAL
 11
32.0
 21
181.5
 31
0.0
100
AcDbText
 73
2
  0
TEXT
  5
155
330
17
100
AcDbEntity
  8
TEXT
100
AcDbText
 10
43.0
 20
181.5
 30
0.0
 40
1.7
  1
Internal sleeve 300 mm (profile-matched)
  7
ARIAL
 11
43.0
 21
181.5
 31
0.0
100
AcDbText
 73
2
  0
TEXT
  5
156
330
17
100
AcDbEntity
  8
TEXT
100
AcDbText
 10
133.0
 20
181.5
 30
0.0
 40
1.7
  1
22
  7
ARIAL
 11
133.0
 21
181.5
 31
0.0
100
AcDbText
 73
2
  0
TEXT
  5
157
330
17
100
AcDbEntity
  8
TEXT
100
AcDbText
 10
146.0
 20
181.5
 30
0.0
 40
1.7
  1
Alu 6063-T5, RAL 9
  7
ARIAL
 11
146.0
 21
181.5
 31
0.0
100
AcDbText
 73
2
  0
TEXT
  5
158
330
17
100
AcDbEntity
  8
TEXT
100
AcDbText
 10
32.0
 20
176.5
 30
0.0
 40
1.7
  1
06
  7
ARIAL
 11
32.0
 21
176.5
 31
0.0
100
AcDbText
 73
2
  0
TEXT
  5
159
330
17
100
AcDbEntity
  8
TEXT
100
AcDbText
 10
43.0
 20
176.5
 30
0.0
 40
1.7
  1
Ground anchor plate 200x200x8
  7
ARIAL
 11
43.0
 21
176.5
 31
0.0
100
AcDbText
 73
2
  0
TEXT
  5
15A
330
17
100
AcDbEntity
  8
TEXT
100
AcDbText
 10
133.0
 20
176.5
 30
0.0
 40
1.7
  1
6
  7
ARIAL
 11
133.0
 21
176.5
 31
0.0
100
AcDbText
 73
2
  0
TEXT
  5
15B
330
17
100
AcDbEntity
  8
TEXT
100
AcDbText
 10
146.0
 20
176.5
 30
0.0
 40
1.7
  1
Steel S235 HDG
  7
ARIAL
 11
146.0
 21
176.5
 31
0.0
100
AcDbText
 73
2
  0
TEXT
  5
15C
330
17
100
AcDbEntity
  8
TEXT
100
AcDbText
 10
32.0
 20
171.5
 30
0.0
 40
1.7
  1
07
  7
ARIAL
 11
32.0
 21
171.5
 31
0.0
100
AcDbText
 73
2
  0
TEXT
  5
15D
330
17
100
AcDbEntity
  8
TEXT
100
AcDbText
 10
43.0
 20
171.5
 30
0.0
 40
1.7
  1
Anchor bolt M12 + chemical resin
  7
ARIAL
 11
43.0
 21
171.5
 31
0.0
100
AcDbText
 73
2
  0
TEXT
  5
15E
330
17
100
AcDbEntity
  8
TEXT
100
AcDbText
 10
133.0
 20
171.5
 30
0.0
 40
1.7
  1
24
  7
ARIAL
 11
133.0
 21
171.5
 31
0.0
100
AcDbText
 73
2
  0
TEXT
  5
15F
330
17
100
AcDbEntity
  8
TEXT
100
AcDbText
 10
146.0
 20
171.5
 30
0.0
 40
1.7
  1
Stainless A2-70
  7
ARIAL
 11
146.0
 21
171.5
 31
0.0
100
AcDbText
 73
2
  0
TEXT
  5
160
330
17
100
AcDbEntity
  8
TEXT
100
AcDbText
 10
32.0
 20
166.5
 30
0.0
 40
1.7
  1
08
  7
ARIAL
 11
32.0
 21
166.5
 31
0.0
100
AcDbText
 73
2
  0
TEXT
  5
161
330
17
100
AcDbEntity
  8
TEXT
100
AcDbText
 10
43.0
 20
166.5
 30
0.0
 40
1.7
  1
Sleeve bolt M8 + nyloc nut
  7
ARIAL
 11
43.0
 21
166.5
 31
0.0
100
AcDbText
 73
2
  0
TEXT
  5
162
330
17
100
AcDbEntity
  8
TEXT
100
AcDbText
 10
133.0
 20
166.5
 30
0.0
 40
1.7
  1
88
  7
ARIAL
 11
133.0
 21
166.5
 31
0.0
100
AcDbText
 73
2
  0
TEXT
  5
163
330
17
100
AcDbEntity
  8
TEXT
100
AcDbText
 10
146.0
 20
166.5
 30
0.0
 40
1.7
  1
Stainless A2-70
  7
ARIAL
 11
146.0
 21
166.5
 31
0.0
100
AcDbText
 73
2
  0
TEXT
  5
164
330
17
100
AcDbEntity
  8
TEXT
100
AcDbText
 10
32.0
 20
161.5
 30
0.0
 40
1.7
  1
09
  7
ARIAL
 11
32.0
 21
161.5
 31
0.0
100
AcDbText
 73
2
  0
TEXT
  5
165
330
17
100
AcDbEntity
  8
TEXT
100
AcDbText
 10
43.0
 20
161.5
 30
0.0
 40
1.7
  1
PV module 1700x1100 (assumption-RFQ)
  7
ARIAL
 11
43.0
 21
161.5
 31
0.0
100
AcDbText
 73
2
  0
TEXT
  5
166
330
17
100
AcDbEntity
  8
TEXT
100
AcDbText
 10
133.0
 20
161.5
 30
0.0
 40
1.7
  1
8
  7
ARIAL
 11
133.0
 21
161.5
 31
0.0
100
AcDbText
 73
2
  0
TEXT
  5
167
330
17
100
AcDbEntity
  8
TEXT
100
AcDbText
 10
146.0
 20
161.5
 30
0.0
 40
1.7
  1
Glass / Alu frame
  7
ARIAL
 11
146.0
 21
161.5
 31
0.0
100
AcDbText
 73
2
  0
TEXT
  5
168
330
17
100
AcDbEntity
  8
TEXT
100
AcDbText
 10
32.0
 20
156.5
 30
0.0
 40
1.7
  1
10
  7
ARIAL
 11
32.0
 21
156.5
 31
0.0
100
AcDbText
 73
2
  0
TEXT
  5
169
330
17
100
AcDbEntity
  8
TEXT
100
AcDbText
 10
43.0
 20
156.5
 30
0.0
 40
1.7
  1
Panel end clamp (alu, RAL 9005)
  7
ARIAL
 11
43.0
 21
156.5
 31
0.0
100
AcDbText
 73
2
  0
TEXT
  5
16A
330
17
100
AcDbEntity
  8
TEXT
100
AcDbText
 10
133.0
 20
156.5
 30
0.0
 40
1.7
  1
16
  7
ARIAL
 11
133.0
 21
156.5
 31
0.0
100
AcDbText
 73
2
  0
TEXT
  5
16B
330
17
100
AcDbEntity
  8
TEXT
100
AcDbText
 10
146.0
 20
156.5
 30
0.0
 40
1.7
  1
Alu 6063-T5, RAL 9
  7
ARIAL
 11
146.0
 21
156.5
 31
0.0
100
AcDbText
 73
2
  0
TEXT
  5
16C
330
17
100
AcDbEntity
  8
TEXT
100
AcDbText
 10
32.0
 20
151.5
 30
0.0
 40
1.7
  1
11
  7
ARIAL
 11
32.0
 21
151.5
 31
0.0
100
AcDbText
 73
2
  0
TEXT
  5
16D
330
17
100
AcDbEntity
  8
TEXT
100
AcDbText
 10
43.0
 20
151.5
 30
0.0
 40
1.7
  1
Panel mid clamp (alu, RAL 9005)
  7
ARIAL
 11
43.0
 21
151.5
 31
0.0
100
AcDbText
 73
2
  0
TEXT
  5
16E
330
17
100
AcDbEntity
  8
TEXT
100
AcDbText
 10
133.0
 20
151.5
 30
0.0
 40
1.7
  1
16
  7
ARIAL
 11
133.0
 21
151.5
 31
0.0
100
AcDbText
 73
2
  0
TEXT
  5
16F
330
17
100
AcDbEntity
  8
TEXT
100
AcDbText
 10
146.0
 20
151.5
 30
0.0
 40
1.7
  1
Alu 6063-T5, RAL 9
  7
ARIAL
 11
146.0
 21
151.5
 31
0.0
100
AcDbText
 73
2
  0
TEXT
  5
170
330
17
100
AcDbEntity
  8
TEXT
100
AcDbText
 10
32.0
 20
146.5
 30
0.0
 40
1.7
  1
12
  7
ARIAL
 11
32.0
 21
146.5
 31
0.0
100
AcDbText
 73
2
  0
TEXT
  5
171
330
17
100
AcDbEntity
  8
TEXT
100
AcDbText
 10
43.0
 20
146.5
 30
0.0
 40
1.7
  1
Sloped purlin saddle 5 deg
  7
ARIAL
 11
43.0
 21
146.5
 31
0.0
100
AcDbText
 73
2
  0
TEXT
  5
172
330
17
100
AcDbEntity
  8
TEXT
100
AcDbText
 10
133.0
 20
146.5
 30
0.0
 40
1.7
  1
8
  7
ARIAL
 11
133.0
 21
146.5
 31
0.0
100
AcDbText
 73
2
  0
TEXT
  5
173
330
17
100
AcDbEntity
  8
TEXT
100
AcDbText
 10
146.0
 20
146.5
 30
0.0
 40
1.7
  1
Alu 6063-T5, RAL 9
  7
ARIAL
 11
146.0
 21
146.5
 31
0.0
100
AcDbText
 73
2
  0
TEXT
  5
174
330
17
100
AcDbEntity
  8
TEXT
100
AcDbText
 10
32.0
 20
141.5
 30
0.0
 40
1.7
  1
13
  7
ARIAL
 11
32.0
 21
141.5
 31
0.0
100
AcDbText
 73
2
  0
TEXT
  5
175
330
17
100
AcDbEntity
  8
TEXT
100
AcDbText
 10
43.0
 20
141.5
 30
0.0
 40
1.7
  1
Control box 900x400x300 IP54 (inverter+15 
  7
ARIAL
 11
43.0
 21
141.5
 31
0.0
100
AcDbText
 73
2
  0
TEXT
  5
176
330
17
100
AcDbEntity
  8
TEXT
100
AcDbText
 10
133.0
 20
141.5
 30
0.0
 40
1.7
  1
1
  7
ARIAL
 11
133.0
 21
141.5
 31
0.0
100
AcDbText
 73
2
  0
TEXT
  5
177
330
17
100
AcDbEntity
  8
TEXT
100
AcDbText
 10
146.0
 20
141.5
 30
0.0
 40
1.7
  1
Steel IP54
  7
ARIAL
 11
146.0
 21
141.5
 31
0.0
100
AcDbText
 73
2
  0
TEXT
  5
178
330
17
100
AcDbEntity
  8
TEXT
100
AcDbText
 10
32.0
 20
136.5
 30
0.0
 40
1.7
  1
14
  7
ARIAL
 11
32.0
 21
136.5
 31
0.0
100
AcDbText
 73
2
  0
TEXT
  5
179
330
17
100
AcDbEntity
  8
TEXT
100
AcDbText
 10
43.0
 20
136.5
 30
0.0
 40
1.7
  1
Corner gusset + M10 beam/post bolt kit
  7
ARIAL
 11
43.0
 21
136.5
 31
0.0
100
AcDbText
 73
2
  0
TEXT
  5
17A
330
17
100
AcDbEntity
  8
TEXT
100
AcDbText
 10
133.0
 20
136.5
 30
0.0
 40
1.7
  1
6
  7
ARIAL
 11
133.0
 21
136.5
 31
0.0
100
AcDbText
 73
2
  0
TEXT
  5
17B
330
17
100
AcDbEntity
  8
TEXT
100
AcDbText
 10
146.0
 20
136.5
 30
0.0
 40
1.7
  1
Stainless A2-70
  7
ARIAL
 11
146.0
 21
136.5
 31
0.0
100
AcDbText
 73
2
  0
ENDSEC
  0
SECTION
  2
OBJECTS
  0
DICTIONARY
  5
A
330
0
100
AcDbDictionary
281
1
  3
ACAD_COLOR
350
B
  3
ACAD_GROUP
350
C
  3
ACAD_LAYOUT
350
D
  3
ACAD_MATERIAL
350
E
  3
ACAD_MLEADERSTYLE
350
F
  3
ACAD_MLINESTYLE
350
10
  3
ACAD_PLOTSETTINGS
350
11
  3
ACAD_PLOTSTYLENAME
350
12
  3
ACAD_SCALELIST
350
14
  3
ACAD_TABLESTYLE
350
15
  3
ACAD_VISUALSTYLE
350
16
  3
EZDXF_META
350
2D
  0
DICTIONARY
  5
B
330
A
100
AcDbDictionary
281
1
  0
DICTIONARY
  5
C
330
A
100
AcDbDictionary
281
1
  0
DICTIONARY
  5
D
330
A
100
AcDbDictionary
281
1
  3
Model
350
1A
  3
Layout1
350
1E
  0
DICTIONARY
  5
E
330
A
100
AcDbDictionary
281
1
  3
ByBlock
350
1F
  3
ByLayer
350
20
  3
Global
350
21
  0
DICTIONARY
  5
F
330
A
100
AcDbDictionary
281
1
  3
Standard
350
2C
  0
DICTIONARY
  5
10
330
A
100
AcDbDictionary
281
1
  3
Standard
350
22
  0
DICTIONARY
  5
11
330
A
100
AcDbDictionary
281
1
  0
ACDBDICTIONARYWDFLT
  5
12
330
A
100
AcDbDictionary
281
1
  3
Normal
350
13
100
AcDbDictionaryWithDefault
340
13
  0
ACDBPLACEHOLDER
  5
13
330
12
  0
DICTIONARY
  5
14
330
A
100
AcDbDictionary
281
1
  0
DICTIONARY
  5
15
330
A
100
AcDbDictionary
281
1
  0
DICTIONARY
  5
16
330
A
100
AcDbDictionary
281
1
  3
2dWireframe
350
5A
  3
Basic
350
5B
  3
Brighten
350
5C
  3
ColorChange
350
5D
  3
Conceptual
350
5E
  3
Dim
350
5F
  3
EdgeColorOff
350
60
  3
Facepattern
350
61
  3
Flat
350
62
  3
FlatWithEdges
350
63
  3
Gouraud
350
64
  3
GouraudWithEdges
350
65
  3
Hidden
350
66
  3
JitterOff
350
67
  3
Linepattern
350
68
  3
Modeling
350
69
  3
OverhangOff
350
6A
  3
Realistic
350
6B
  3
Shaded
350
6C
  3
Shaded with edges
350
6D
  3
Shades of Gray
350
6E
  3
Sketchy
350
6F
  3
Thicken
350
70
  3
Wireframe
350
71
  3
X-Ray
350
72
  0
LAYOUT
  5
1A
330
D
100
AcDbPlotSettings
  1

  4
A3
  6

 40
7.5
 41
20.0
 42
7.5
 43
20.0
 44
420.0
 45
297.0
 46
0.0
 47
0.0
 48
0.0
 49
0.0
140
0.0
141
0.0
142
1.0
143
1.0
 70
1024
 72
1
 73
0
 74
5
  7

 75
16
 76
0
 77
2
 78
300
147
1.0
148
0.0
149
0.0
100
AcDbLayout
  1
Model
 70
1
 71
0
 10
0.0
 20
0.0
 11
420.0
 21
297.0
 12
0.0
 22
0.0
 32
0.0
 14
1e+20
 24
1e+20
 34
1e+20
 15
-1e+20
 25
-1e+20
 35
-1e+20
146
0.0
 13
0.0
 23
0.0
 33
0.0
 16
1.0
 26
0.0
 36
0.0
 17
0.0
 27
1.0
 37
0.0
 76
1
330
17
  0
LAYOUT
  5
1E
330
D
100
AcDbPlotSettings
  1

  4
A3
  6

 40
7.5
 41
20.0
 42
7.5
 43
20.0
 44
420.0
 45
297.0
 46
0.0
 47
0.0
 48
0.0
 49
0.0
140
0.0
141
0.0
142
1.0
143
1.0
 70
0
 72
1
 73
0
 74
5
  7

 75
16
 76
0
 77
2
 78
300
147
1.0
148
0.0
149
0.0
100
AcDbLayout
  1
Layout1
 70
1
 71
1
 10
0.0
 20
0.0
 11
420.0
 21
297.0
 12
0.0
 22
0.0
 32
0.0
 14
1e+20
 24
1e+20
 34
1e+20
 15
-1e+20
 25
-1e+20
 35
-1e+20
146
0.0
 13
0.0
 23
0.0
 33
0.0
 16
1.0
 26
0.0
 36
0.0
 17
0.0
 27
1.0
 37
0.0
 76
1
330
1B
  0
MATERIAL
  5
1F
102
{ACAD_REACTORS
330
E
102
}
330
E
100
AcDbMaterial
  1
ByBlock
  2

 70
0
 40
1.0
 71
1
 41
1.0
 91
-1023410177
 42
1.0
 72
1
  3

 73
1
 74
1
 75
1
 44
0.5
 73
0
 45
1.0
 46
1.0
 77
1
  4

 78
1
 79
1
170
1
 48
1.0
171
1
  6

172
1
173
1
174
1
140
1.0
141
1.0
175
1
  7

176
1
177
1
178
1
143
1.0
179
1
  8

270
1
271
1
272
1
145
1.0
146
1.0
273
1
  9

274
1
275
1
276
1
 42
1.0
 72
1
  3

 73
1
 74
1
 75
1
 94
63
  0
MATERIAL
  5
20
102
{ACAD_REACTORS
330
E
102
}
330
E
100
AcDbMaterial
  1
ByLayer
  2

 70
0
 40
1.0
 71
1
 41
1.0
 91
-1023410177
 42
1.0
 72
1
  3

 73
1
 74
1
 75
1
 44
0.5
 73
0
 45
1.0
 46
1.0
 77
1
  4

 78
1
 79
1
170
1
 48
1.0
171
1
  6

172
1
173
1
174
1
140
1.0
141
1.0
175
1
  7

176
1
177
1
178
1
143
1.0
179
1
  8

270
1
271
1
272
1
145
1.0
146
1.0
273
1
  9

274
1
275
1
276
1
 42
1.0
 72
1
  3

 73
1
 74
1
 75
1
 94
63
  0
MATERIAL
  5
21
102
{ACAD_REACTORS
330
E
102
}
330
E
100
AcDbMaterial
  1
Global
  2

 70
0
 40
1.0
 71
1
 41
1.0
 91
-1023410177
 42
1.0
 72
1
  3

 73
1
 74
1
 75
1
 44
0.5
 73
0
 45
1.0
 46
1.0
 77
1
  4

 78
1
 79
1
170
1
 48
1.0
171
1
  6

172
1
173
1
174
1
140
1.0
141
1.0
175
1
  7

176
1
177
1
178
1
143
1.0
179
1
  8

270
1
271
1
272
1
145
1.0
146
1.0
273
1
  9

274
1
275
1
276
1
 42
1.0
 72
1
  3

 73
1
 74
1
 75
1
 94
63
  0
MLINESTYLE
  5
22
102
{ACAD_REACTORS
330
10
102
}
330
10
100
AcDbMlineStyle
  2
Standard
 70
0
  3

 62
256
 51
90.0
 52
90.0
 71
2
 49
0.5
 62
256
  6
BYLAYER
 49
-0.5
 62
256
  6
BYLAYER
  0
MLEADERSTYLE
  5
2C
102
{ACAD_REACTORS
330
F
102
}
330
F
100
AcDbMLeaderStyle
179
2
170
2
171
1
172
0
 90
2
 40
0.0
 41
0.0
173
1
 91
-1056964608
 92
-2
290
1
 42
2.0
291
1
 43
8.0
  3
Standard
 44
4.0
300

342
29
174
1
175
1
176
0
178
1
 93
-1056964608
 45
4.0
292
0
297
0
 46
4.0
 94
-1056964608
 47
1.0
 49
1.0
140
1.0
294
1
141
0.0
177
0
142
1.0
295
0
296
0
143
3.75
271
0
272
9
273
9
  0
DICTIONARY
  5
2D
330
A
100
AcDbDictionary
280
1
281
1
  3
CREATED_BY_EZDXF
350
2E
  3
WRITTEN_BY_EZDXF
350
17E
  0
DICTIONARYVAR
  5
2E
330
2D
100
DictionaryVariables
280
0
  1
1.4.4 @ 2026-06-25T00:42:26.264341+00:00
  0
VISUALSTYLE
  5
5A
102
{ACAD_REACTORS
330
16
102
}
330
16
100
AcDbVisualStyle
  2
2dWireframe
 70
4
 90
0
 40
0.6
 62
7
290
0
291
0
  0
VISUALSTYLE
  5
5B
102
{ACAD_REACTORS
330
16
102
}
330
16
100
AcDbVisualStyle
  2
Basic
 70
7
 90
1
 40
0.6
 62
7
290
0
291
1
  0
VISUALSTYLE
  5
5C
102
{ACAD_REACTORS
330
16
102
}
330
16
100
AcDbVisualStyle
  2
Brighten
 70
12
 90
2
 40
0.6
 62
7
290
0
291
1
  0
VISUALSTYLE
  5
5D
102
{ACAD_REACTORS
330
16
102
}
330
16
100
AcDbVisualStyle
  2
ColorChange
 70
16
 90
2
 40
0.6
 62
8
290
0
291
1
  0
VISUALSTYLE
  5
5E
102
{ACAD_REACTORS
330
16
102
}
330
16
100
AcDbVisualStyle
  2
Conceptual
 70
9
 90
3
 40
0.6
 62
7
290
0
291
0
  0
VISUALSTYLE
  5
5F
102
{ACAD_REACTORS
330
16
102
}
330
16
100
AcDbVisualStyle
  2
Dim
 70
11
 90
2
 40
0.6
 62
7
290
0
291
1
  0
VISUALSTYLE
  5
60
102
{ACAD_REACTORS
330
16
102
}
330
16
100
AcDbVisualStyle
  2
EdgeColorOff
 70
22
 90
2
 40
0.6
 62
7
290
0
291
1
  0
VISUALSTYLE
  5
61
102
{ACAD_REACTORS
330
16
102
}
330
16
100
AcDbVisualStyle
  2
Facepattern
 70
15
 90
2
 40
0.6
 62
7
290
0
291
1
  0
VISUALSTYLE
  5
62
102
{ACAD_REACTORS
330
16
102
}
330
16
100
AcDbVisualStyle
  2
Flat
 70
0
 90
2
 40
0.6
 62
7
290
0
291
1
  0
VISUALSTYLE
  5
63
102
{ACAD_REACTORS
330
16
102
}
330
16
100
AcDbVisualStyle
  2
FlatWithEdges
 70
1
 90
2
 40
0.6
 62
7
290
0
291
1
  0
VISUALSTYLE
  5
64
102
{ACAD_REACTORS
330
16
102
}
330
16
100
AcDbVisualStyle
  2
Gouraud
 70
2
 90
2
 40
0.6
 62
7
290
0
291
1
  0
VISUALSTYLE
  5
65
102
{ACAD_REACTORS
330
16
102
}
330
16
100
AcDbVisualStyle
  2
GouraudWithEdges
 70
3
 90
2
 40
0.6
 62
7
290
0
291
1
  0
VISUALSTYLE
  5
66
102
{ACAD_REACTORS
330
16
102
}
330
16
100
AcDbVisualStyle
  2
Hidden
 70
6
 90
1
 40
0.6
 62
7
290
0
291
0
  0
VISUALSTYLE
  5
67
102
{ACAD_REACTORS
330
16
102
}
330
16
100
AcDbVisualStyle
  2
JitterOff
 70
20
 90
2
 40
0.6
 62
7
290
0
291
1
  0
VISUALSTYLE
  5
68
102
{ACAD_REACTORS
330
16
102
}
330
16
100
AcDbVisualStyle
  2
Linepattern
 70
14
 90
2
 40
0.6
 62
7
290
0
291
1
  0
VISUALSTYLE
  5
69
102
{ACAD_REACTORS
330
16
102
}
330
16
100
AcDbVisualStyle
  2
Modeling
 70
10
 90
2
 40
0.6
 62
7
290
0
291
0
  0
VISUALSTYLE
  5
6A
102
{ACAD_REACTORS
330
16
102
}
330
16
100
AcDbVisualStyle
  2
OverhangOff
 70
21
 90
2
 40
0.6
 62
7
290
0
291
1
  0
VISUALSTYLE
  5
6B
102
{ACAD_REACTORS
330
16
102
}
330
16
100
AcDbVisualStyle
  2
Realistic
 70
8
 90
2
 40
0.6
 62
7
290
0
291
0
  0
VISUALSTYLE
  5
6C
102
{ACAD_REACTORS
330
16
102
}
330
16
100
AcDbVisualStyle
  2
Shaded
 70
27
 90
2
 40
0.6
 62
7
290
0
291
0
  0
VISUALSTYLE
  5
6D
102
{ACAD_REACTORS
330
16
102
}
330
16
100
AcDbVisualStyle
  2
Shaded with edges
 70
26
 90
2
 40
0.6
 62
7
290
0
291
0
  0
VISUALSTYLE
  5
6E
102
{ACAD_REACTORS
330
16
102
}
330
16
100
AcDbVisualStyle
  2
Shades of Gray
 70
23
 90
2
 40
0.6
 62
7
290
0
291
0
  0
VISUALSTYLE
  5
6F
102
{ACAD_REACTORS
330
16
102
}
330
16
100
AcDbVisualStyle
  2
Sketchy
 70
24
 90
1
 40
0.6
 62
7
290
0
291
0
  0
VISUALSTYLE
  5
70
102
{ACAD_REACTORS
330
16
102
}
330
16
100
AcDbVisualStyle
  2
Thicken
 70
13
 90
2
 40
0.6
 62
7
290
0
291
1
  0
VISUALSTYLE
  5
71
102
{ACAD_REACTORS
330
16
102
}
330
16
100
AcDbVisualStyle
  2
Wireframe
 70
5
 90
0
 40
0.6
 62
7
290
0
291
0
  0
VISUALSTYLE
  5
72
102
{ACAD_REACTORS
330
16
102
}
330
16
100
AcDbVisualStyle
  2
X-Ray
 70
25
 90
2
 40
0.5
 62
7
290
0
291
0
  0
DICTIONARYVAR
  5
17E
330
2D
100
DictionaryVariables
280
0
  1
1.4.4 @ 2026-06-25T00:42:26.278051+00:00
  0
ENDSEC
  0
EOF
